<svg xmlns="http://www.w3.org/2000/svg" xmlns:xlink="http://www.w3.org/1999/xlink" viewBox="0 0 820 688.481"><defs><style>.cls-1{isolation:isolate;}.cls-2{fill:#fff;}.cls-3{fill:gray;}.cls-4{mix-blend-mode:luminosity;}</style><image id="image" width="500" height="700" xlink:href="../../../../../Dropbox/Kikinna/Work/iRozhlas/Vizualizace%20pro%20%C4%8Dl%C3%A1nky/2022/2022-01%20Honza%20-%20Olympiada%20(Vaha,Vyska,Vek)/animace/input/no_background/skoky_muzi_0_10.png"/></defs><g class="cls-1"><g id="Layer_1" data-name="Layer 1"><rect class="cls-2" x="512.979" y="214.323" width="139.404" height="274.075"/><path d="M213.287,507.623a1.769,1.769,0,0,1,.529,1.416q0,2.351-3.276,2.352h-2.28v-8.268h1.956a4.6,4.6,0,0,1,2.405.516,1.721,1.721,0,0,1,.835,1.571,1.689,1.689,0,0,1-.45,1.2,2.022,2.022,0,0,1-1.1.611A2.771,2.771,0,0,1,213.287,507.623Zm-3.887-3.6v2.6h1.248a1.905,1.905,0,0,0,1.181-.347,1.159,1.159,0,0,0,.463-.985,1.044,1.044,0,0,0-.486-1,3.06,3.06,0,0,0-1.47-.277Zm2.682,6.157a1.191,1.191,0,0,0,.534-1.14,1.332,1.332,0,0,0-.516-1.176,2.3,2.3,0,0,0-1.344-.361H209.4v2.977h1.14A3.2,3.2,0,0,0,212.082,510.179Z"/><path d="M219.942,505.811a3.658,3.658,0,0,1,.738,2.412,4.2,4.2,0,0,1-.336,1.734,2.643,2.643,0,0,1-.973,1.164,2.712,2.712,0,0,1-1.511.414,2.558,2.558,0,0,1-2.076-.889,3.631,3.631,0,0,1-.745-2.411,4.225,4.225,0,0,1,.336-1.735,2.654,2.654,0,0,1,.973-1.164,2.738,2.738,0,0,1,1.523-.413A2.543,2.543,0,0,1,219.942,505.811Zm-3.714,2.424q0,2.412,1.632,2.411t1.632-2.423q0-2.412-1.621-2.412Q216.229,505.811,216.228,508.235Z"/><path d="M227.112,505.792a4.059,4.059,0,0,1,.635,2.431,4.646,4.646,0,0,1-.3,1.734,2.606,2.606,0,0,1-.865,1.164,2.174,2.174,0,0,1-1.319.414,2.092,2.092,0,0,1-1.681-.84l-.107.7H222.5v-8.869l1.105-.131v3.467a2.118,2.118,0,0,1,1.788-.935A2.018,2.018,0,0,1,227.112,505.792Zm-.966,4.272a3.264,3.264,0,0,0,.414-1.841,3.407,3.407,0,0,0-.385-1.854,1.239,1.239,0,0,0-1.092-.57,1.788,1.788,0,0,0-1.475.984v3.024a1.96,1.96,0,0,0,.618.624,1.437,1.437,0,0,0,.773.228A1.323,1.323,0,0,0,226.146,510.064Z"/><path d="M230.736,502.247a.737.737,0,0,1,.216.54.718.718,0,0,1-.216.534.781.781,0,0,1-.565.21.766.766,0,0,1-.552-.21.717.717,0,0,1-.215-.534.736.736,0,0,1,.215-.54.751.751,0,0,1,.552-.216A.765.765,0,0,1,230.736,502.247Zm0,2.819v6.325h-1.1v-6.325Z"/><path d="M235.9,505.1a3.476,3.476,0,0,1,.984.54l-.468.7a3.819,3.819,0,0,0-.822-.408,2.547,2.547,0,0,0-.822-.132,1.448,1.448,0,0,0-.852.222.751.751,0,0,0-.017,1.206,3.384,3.384,0,0,0,1.061.419,3.788,3.788,0,0,1,1.578.721,1.57,1.57,0,0,1,.522,1.248,1.613,1.613,0,0,1-.726,1.427,3.073,3.073,0,0,1-1.769.493,3.5,3.5,0,0,1-2.389-.828l.588-.672a2.87,2.87,0,0,0,1.776.611,1.693,1.693,0,0,0,.991-.257.816.816,0,0,0,.365-.7.924.924,0,0,0-.132-.522,1.074,1.074,0,0,0-.456-.349,6.412,6.412,0,0,0-.947-.317,3.23,3.23,0,0,1-1.458-.708,1.514,1.514,0,0,1-.45-1.128,1.476,1.476,0,0,1,.293-.894,1.906,1.906,0,0,1,.816-.624,2.967,2.967,0,0,1,1.171-.222A3.493,3.493,0,0,1,235.9,505.1Z"/><path d="M241.812,511.1a2.428,2.428,0,0,1-1.416.432,1.67,1.67,0,0,1-1.254-.462,1.841,1.841,0,0,1-.45-1.338v-3.817h-1.1v-.852h1.1v-1.427l1.1-.132v1.559h1.5l-.12.852H239.8v3.769a1.158,1.158,0,0,0,.174.713.692.692,0,0,0,.582.223,1.813,1.813,0,0,0,.84-.252Z"/><path d="M244.056,502.247a.733.733,0,0,1,.216.54.714.714,0,0,1-.216.534.781.781,0,0,1-.564.21.763.763,0,0,1-.552-.21.714.714,0,0,1-.216-.534.733.733,0,0,1,.216-.54.748.748,0,0,1,.552-.216A.764.764,0,0,1,244.056,502.247Zm0,2.819v6.325h-1.1v-6.325Z"/><path d="M606.873,109.064a4.528,4.528,0,0,1,1.414.9l-.91,1.05a3.609,3.609,0,0,0-1.043-.63,3.209,3.209,0,0,0-1.127-.2,1.806,1.806,0,0,0-1.085.3.989.989,0,0,0-.413.848,1.051,1.051,0,0,0,.161.6,1.482,1.482,0,0,0,.582.448,8.394,8.394,0,0,0,1.246.462,5.647,5.647,0,0,1,2.148,1.114,2.5,2.5,0,0,1,.721,1.938,2.748,2.748,0,0,1-.441,1.541,2.927,2.927,0,0,1-1.267,1.049,4.675,4.675,0,0,1-1.96.378,5.2,5.2,0,0,1-1.981-.357,4.6,4.6,0,0,1-1.5-.973l.953-1.064a4.259,4.259,0,0,0,1.161.721,3.5,3.5,0,0,0,1.33.246,2.05,2.05,0,0,0,1.288-.379,1.264,1.264,0,0,0,.49-1.064,1.3,1.3,0,0,0-.168-.693,1.455,1.455,0,0,0-.574-.489,6.97,6.97,0,0,0-1.176-.456,5.512,5.512,0,0,1-2.225-1.148,2.357,2.357,0,0,1-.687-1.764,2.387,2.387,0,0,1,.42-1.4,2.771,2.771,0,0,1,1.169-.938,4.112,4.112,0,0,1,1.7-.335A4.893,4.893,0,0,1,606.873,109.064Z"/><path d="M611.885,108.084v10.57h-1.792V108.28Zm4.438,3.165-2.464,3.261,2.7,4.144H614.5l-2.548-4.046,2.478-3.359Z"/><path d="M622.994,112.081a4.185,4.185,0,0,1,.917,2.863,4.761,4.761,0,0,1-.419,2.051,3.2,3.2,0,0,1-1.2,1.38,3.447,3.447,0,0,1-1.862.489,3.239,3.239,0,0,1-2.561-1.043,4.182,4.182,0,0,1-.925-2.877,4.691,4.691,0,0,1,.421-2.044,3.173,3.173,0,0,1,1.211-1.372,3.475,3.475,0,0,1,1.868-.49A3.223,3.223,0,0,1,622.994,112.081Zm-4.165,2.863a3.676,3.676,0,0,0,.4,1.939,1.457,1.457,0,0,0,2.394-.007,3.684,3.684,0,0,0,.4-1.932,3.64,3.64,0,0,0-.4-1.924,1.313,1.313,0,0,0-1.183-.624Q618.83,112.4,618.829,114.944Z"/><path d="M627.383,108.084v10.57h-1.792V108.28Zm4.438,3.165-2.464,3.261,2.7,4.144H630l-2.548-4.046,2.478-3.359Z"/><path d="M638.464,117.331a.848.848,0,0,0,.428.315l-.378,1.19a2.282,2.282,0,0,1-1.029-.308,1.579,1.579,0,0,1-.61-.77,2.366,2.366,0,0,1-.944.833,2.886,2.886,0,0,1-1.268.273,2.4,2.4,0,0,1-1.75-.63,2.21,2.21,0,0,1-.643-1.651,2.137,2.137,0,0,1,.875-1.842,4.2,4.2,0,0,1,2.5-.637h.924v-.42a1.283,1.283,0,0,0-.329-1,1.6,1.6,0,0,0-1.057-.287,6.252,6.252,0,0,0-1.96.392l-.42-1.218a7.491,7.491,0,0,1,2.688-.532q2.841,0,2.841,2.548v3.108A1.183,1.183,0,0,0,638.464,117.331Zm-1.9-.679v-1.5h-.742q-1.737,0-1.737,1.288a1.184,1.184,0,0,0,.267.826,1,1,0,0,0,.784.294A1.586,1.586,0,0,0,636.568,116.652Z"/><path d="M646,111.633a2.343,2.343,0,0,1,.553,1.659v5.362h-1.792v-5.082a1.425,1.425,0,0,0-.231-.924.851.851,0,0,0-.679-.266,1.328,1.328,0,0,0-.833.287,3.306,3.306,0,0,0-.721.833v5.152H640.5v-7.405h1.554l.141.965a2.75,2.75,0,0,1,2.254-1.176A2.009,2.009,0,0,1,646,111.633Z"/><path d="M650.336,107.812a1.052,1.052,0,0,1,.315.776,1.032,1.032,0,0,1-.315.77,1.124,1.124,0,0,1-.819.309,1.105,1.105,0,0,1-.805-.309,1.032,1.032,0,0,1-.315-.77,1.052,1.052,0,0,1,.315-.776,1.086,1.086,0,0,1,.805-.316A1.1,1.1,0,0,1,650.336,107.812Zm.091,3.437v7.405h-1.792v-7.405Z"/><path class="cls-3" d="M556.715,498.133v8.028h-1.1v-6.852l-1.872,1.14-.481-.781,2.485-1.535Z"/><path class="cls-3" d="M563,498.133v.827l-3,7.321L559,505.945l2.892-6.912h-3.552v-.9Z"/><path class="cls-3" d="M567.185,498.3a2.089,2.089,0,0,1,1.146,1.907,3.148,3.148,0,0,1-.33,1.4,6.82,6.82,0,0,1-1.014,1.451q-.684.781-2.076,2.173h3.612l-.132.924h-4.74v-.876q1.608-1.668,2.28-2.442a6.885,6.885,0,0,0,.96-1.35,2.726,2.726,0,0,0,.288-1.236,1.232,1.232,0,0,0-1.32-1.332,1.786,1.786,0,0,0-.865.2,3.184,3.184,0,0,0-.791.673l-.72-.576a3.315,3.315,0,0,1,1.092-.913,2.976,2.976,0,0,1,1.344-.3A2.674,2.674,0,0,1,567.185,498.3Z"/><path class="cls-3" d="M571.152,504.876a.806.806,0,0,1,.239.589,2.1,2.1,0,0,1-.216.851l-.8,1.837h-.792l.48-1.992a.851.851,0,0,1-.245-.3.861.861,0,0,1-.091-.4.818.818,0,0,1,.828-.828A.819.819,0,0,1,571.152,504.876Z"/><path class="cls-3" d="M576.743,498.847a3.6,3.6,0,0,1,.66,2.286,6.611,6.611,0,0,1-.445,2.646,3.614,3.614,0,0,1-1.355,1.6,9.457,9.457,0,0,1-2.473,1.05l-.252-.828a6.1,6.1,0,0,0,2.466-1.236,2.861,2.861,0,0,0,.918-2.076,2.07,2.07,0,0,1-.743.695,2.106,2.106,0,0,1-1.057.265,2.07,2.07,0,0,1-1.128-.318,2.225,2.225,0,0,1-.8-.9,2.984,2.984,0,0,1-.293-1.362,2.783,2.783,0,0,1,.347-1.416,2.38,2.38,0,0,1,.931-.918,2.643,2.643,0,0,1,1.29-.318A2.317,2.317,0,0,1,576.743,498.847Zm-.457,2.538a3.715,3.715,0,0,0-.33-1.914,1.216,1.216,0,0,0-1.122-.582,1.33,1.33,0,0,0-1.091.467,2.051,2.051,0,0,0-.384,1.332,1.926,1.926,0,0,0,.359,1.267,1.209,1.209,0,0,0,.973.426A1.878,1.878,0,0,0,576.286,501.385Z"/><path class="cls-3" d="M585.659,499.854a2.9,2.9,0,0,1,.9.522l-.528.7a2.71,2.71,0,0,0-.654-.354,2.067,2.067,0,0,0-.7-.115,1.372,1.372,0,0,0-1.194.613,3.174,3.174,0,0,0-.426,1.812,3,3,0,0,0,.42,1.77,1.4,1.4,0,0,0,1.2.57,1.979,1.979,0,0,0,.684-.114,3.477,3.477,0,0,0,.7-.366l.5.72a3,3,0,0,1-1.932.7,2.517,2.517,0,0,1-2.022-.865,3.556,3.556,0,0,1-.738-2.387,4.307,4.307,0,0,1,.336-1.764,2.707,2.707,0,0,1,.954-1.176,2.552,2.552,0,0,1,1.47-.42A3.164,3.164,0,0,1,585.659,499.854Z"/><path class="cls-3" d="M595.656,500.215a2.037,2.037,0,0,1,.467,1.41v4.536h-1.1v-4.38q0-1.224-.888-1.224a1.193,1.193,0,0,0-.792.27,3.777,3.777,0,0,0-.7.846v4.488h-1.1v-4.38q0-1.224-.887-1.224a1.2,1.2,0,0,0-.805.276,3.81,3.81,0,0,0-.684.84v4.488h-1.1v-6.325h.948l.1.925a2.119,2.119,0,0,1,1.824-1.068,1.659,1.659,0,0,1,1,.3,1.64,1.64,0,0,1,.594.84,2.972,2.972,0,0,1,.822-.846,1.9,1.9,0,0,1,1.063-.294A1.6,1.6,0,0,1,595.656,500.215Z"/><path class="cls-3" d="M562.87,512.533v.827l-3,7.321-1.007-.336,2.891-6.912H558.2v-.9Z"/><path class="cls-3" d="M568.445,513.475a7.349,7.349,0,0,1,0,6.162,2.426,2.426,0,0,1-4.021,0,7.339,7.339,0,0,1,0-6.162,2.434,2.434,0,0,1,4.021,0Zm-3.168.582a8.428,8.428,0,0,0,0,5,1.248,1.248,0,0,0,2.309,0,8.307,8.307,0,0,0,0-4.993,1.25,1.25,0,0,0-2.309,0Z"/><path class="cls-3" d="M571.811,519.276a.806.806,0,0,1,.239.589,2.1,2.1,0,0,1-.216.851l-.8,1.837h-.792l.479-1.992a.883.883,0,0,1-.245-.3.861.861,0,0,1-.091-.4.818.818,0,0,1,.828-.828A.818.818,0,0,1,571.811,519.276Z"/><path class="cls-3" d="M575.338,512.533v8.028h-1.1v-6.853l-1.872,1.141-.481-.781,2.485-1.535Z"/><path class="cls-3" d="M582.082,511.561v9h-1.1v-8.869Zm3.636,2.675-2.328,2.8,2.592,3.528h-1.32l-2.507-3.457,2.327-2.868Z"/><path class="cls-3" d="M592.139,514.524a3.39,3.39,0,0,1-.792.157c-.288.024-.641.035-1.057.035a1.67,1.67,0,0,1,1.117,1.6,2.013,2.013,0,0,1-.648,1.548,2.491,2.491,0,0,1-1.765.6,2.6,2.6,0,0,1-.8-.12.69.69,0,0,0-.228.259.707.707,0,0,0-.084.33q0,.515.827.515h1.009a2.67,2.67,0,0,1,1.128.228,1.846,1.846,0,0,1,.762.624,1.562,1.562,0,0,1,.269.9,1.606,1.606,0,0,1-.755,1.422,4.039,4.039,0,0,1-2.208.5,5.02,5.02,0,0,1-1.614-.21,1.529,1.529,0,0,1-.846-.631,2.071,2.071,0,0,1-.252-1.079h1a1.107,1.107,0,0,0,.144.606.9.9,0,0,0,.516.336,3.825,3.825,0,0,0,1.056.113,3,3,0,0,0,1.421-.246.8.8,0,0,0,.427-.737.76.76,0,0,0-.336-.672,1.652,1.652,0,0,0-.936-.228h-1a1.872,1.872,0,0,1-1.218-.343,1.064,1.064,0,0,1-.414-.858,1.117,1.117,0,0,1,.179-.6,1.76,1.76,0,0,1,.517-.515,1.8,1.8,0,0,1-1.068-1.752,2.089,2.089,0,0,1,.318-1.14,2.161,2.161,0,0,1,.876-.786,2.714,2.714,0,0,1,1.242-.282,8.783,8.783,0,0,0,1.248-.054,4.244,4.244,0,0,0,.834-.181c.22-.075.489-.186.81-.33Zm-4.183.75a1.718,1.718,0,0,0,.007,2.064,1.247,1.247,0,0,0,.984.391,1.268,1.268,0,0,0,.99-.378,1.532,1.532,0,0,0,.342-1.062,1.368,1.368,0,0,0-2.323-1.015Z"/><path d="M655.6,498.133v8.028h-1.1v-6.852l-1.872,1.14-.48-.781,2.484-1.535Z"/><path d="M661.89,498.133v.827l-3,7.321-1.008-.336,2.892-6.912h-3.552v-.9Z"/><path d="M667.217,498.133v.827l-3,7.321-1.008-.336,2.892-6.912h-3.552v-.9Z"/><path d="M669.606,504.876a.806.806,0,0,1,.239.589,2.1,2.1,0,0,1-.216.851l-.8,1.837h-.792l.479-1.992a.873.873,0,0,1-.245-.3.861.861,0,0,1-.091-.4.818.818,0,0,1,.828-.828A.819.819,0,0,1,669.606,504.876Z"/><path d="M675.149,501.168a2.054,2.054,0,0,1,.8.865,3.01,3.01,0,0,1,.3,1.4,3.2,3.2,0,0,1-.342,1.506,2.514,2.514,0,0,1-.923,1.008,2.439,2.439,0,0,1-1.29.354,2.245,2.245,0,0,1-2.053-1.038,5.414,5.414,0,0,1-.648-2.874,6.588,6.588,0,0,1,.367-2.3,3.42,3.42,0,0,1,1.049-1.536,2.521,2.521,0,0,1,1.621-.546,2.936,2.936,0,0,1,1.655.492l-.432.732a2.309,2.309,0,0,0-1.236-.348,1.539,1.539,0,0,0-1.367.828,4.554,4.554,0,0,0-.553,2.22,2.27,2.27,0,0,1,1.933-1.056A2.218,2.218,0,0,1,675.149,501.168Zm-.384,3.733a2.438,2.438,0,0,0,.372-1.428q0-1.716-1.3-1.716a1.719,1.719,0,0,0-.972.294,2.512,2.512,0,0,0-.755.81,4.074,4.074,0,0,0,.414,1.944,1.271,1.271,0,0,0,1.17.624A1.226,1.226,0,0,0,674.765,504.9Z"/><path d="M684.389,499.854a2.888,2.888,0,0,1,.9.522l-.528.7a2.705,2.705,0,0,0-.653-.354,2.072,2.072,0,0,0-.7-.115,1.374,1.374,0,0,0-1.195.613,3.174,3.174,0,0,0-.425,1.812,3,3,0,0,0,.419,1.77,1.4,1.4,0,0,0,1.2.57,1.974,1.974,0,0,0,.683-.114,3.482,3.482,0,0,0,.7-.366l.5.72a3,3,0,0,1-1.931.7,2.519,2.519,0,0,1-2.023-.865,3.556,3.556,0,0,1-.738-2.387,4.307,4.307,0,0,1,.336-1.764,2.721,2.721,0,0,1,.954-1.176,2.553,2.553,0,0,1,1.471-.42A3.154,3.154,0,0,1,684.389,499.854Z"/><path d="M694.386,500.215a2.032,2.032,0,0,1,.468,1.41v4.536h-1.105v-4.38q0-1.224-.887-1.224a1.191,1.191,0,0,0-.792.27,3.778,3.778,0,0,0-.7.846v4.488h-1.1v-4.38q0-1.224-.888-1.224a1.2,1.2,0,0,0-.8.276,3.782,3.782,0,0,0-.684.84v4.488h-1.105v-6.325h.949l.095.925a2.12,2.12,0,0,1,1.825-1.068,1.664,1.664,0,0,1,1,.3,1.638,1.638,0,0,1,.593.84,2.974,2.974,0,0,1,.823-.846,1.9,1.9,0,0,1,1.062-.294A1.594,1.594,0,0,1,694.386,500.215Z"/><path d="M660.4,515.568a2.062,2.062,0,0,1,.805.865,3.018,3.018,0,0,1,.3,1.4,3.216,3.216,0,0,1-.341,1.507,2.523,2.523,0,0,1-.924,1.008,2.448,2.448,0,0,1-1.29.354,2.245,2.245,0,0,1-2.053-1.038,5.416,5.416,0,0,1-.647-2.875,6.61,6.61,0,0,1,.366-2.3,3.417,3.417,0,0,1,1.05-1.537,2.523,2.523,0,0,1,1.62-.545,2.936,2.936,0,0,1,1.655.492l-.432.732a2.309,2.309,0,0,0-1.236-.348,1.537,1.537,0,0,0-1.367.828,4.55,4.55,0,0,0-.553,2.219,2.271,2.271,0,0,1,1.933-1.055A2.208,2.208,0,0,1,660.4,515.568Zm-.384,3.733a2.438,2.438,0,0,0,.372-1.428q0-1.716-1.3-1.716a1.714,1.714,0,0,0-.971.294,2.494,2.494,0,0,0-.756.81,4.074,4.074,0,0,0,.414,1.944,1.271,1.271,0,0,0,1.17.624A1.225,1.225,0,0,0,660.011,519.3Z"/><path d="M665.837,512.7a2.113,2.113,0,0,1,.846.785,2.137,2.137,0,0,1,.3,1.122,3.164,3.164,0,0,1-.33,1.405,6.891,6.891,0,0,1-1.015,1.451q-.684.781-2.076,2.173h3.612l-.132.924H662.3v-.876q1.608-1.668,2.28-2.442a6.842,6.842,0,0,0,.96-1.35,2.713,2.713,0,0,0,.288-1.236,1.232,1.232,0,0,0-1.32-1.332,1.779,1.779,0,0,0-.864.2,3.187,3.187,0,0,0-.792.673l-.72-.576a3.325,3.325,0,0,1,1.092-.913,2.98,2.98,0,0,1,1.345-.3A2.673,2.673,0,0,1,665.837,512.7Z"/><path d="M669.8,519.276a.806.806,0,0,1,.239.589,2.112,2.112,0,0,1-.215.851l-.8,1.837h-.792l.479-1.992a.883.883,0,0,1-.245-.3.874.874,0,0,1-.091-.4.82.82,0,0,1,.829-.828A.817.817,0,0,1,669.8,519.276Z"/><path d="M674.658,512.7a2.094,2.094,0,0,1,1.146,1.907,3.151,3.151,0,0,1-.33,1.405,6.891,6.891,0,0,1-1.015,1.451q-.684.781-2.076,2.173H676l-.131.924h-4.741v-.876q1.61-1.668,2.281-2.442a6.928,6.928,0,0,0,.96-1.35,2.726,2.726,0,0,0,.288-1.236,1.234,1.234,0,0,0-1.321-1.332,1.779,1.779,0,0,0-.864.2,3.187,3.187,0,0,0-.792.673l-.72-.576a3.335,3.335,0,0,1,1.092-.913,2.983,2.983,0,0,1,1.345-.3A2.68,2.68,0,0,1,674.658,512.7Z"/><path d="M682.019,511.561v9h-1.105v-8.869Zm3.636,2.675-2.328,2.8,2.591,3.528H684.6l-2.508-3.457,2.327-2.868Z"/><path d="M692.076,514.524a3.4,3.4,0,0,1-.792.157c-.289.024-.641.035-1.057.035a1.671,1.671,0,0,1,1.116,1.6,2.015,2.015,0,0,1-.647,1.548,2.5,2.5,0,0,1-1.765.6,2.6,2.6,0,0,1-.8-.12.688.688,0,0,0-.227.259.7.7,0,0,0-.084.33q0,.515.827.515h1.009a2.67,2.67,0,0,1,1.128.228,1.836,1.836,0,0,1,.761.624,1.563,1.563,0,0,1,.27.9,1.6,1.6,0,0,1-.756,1.422,4.037,4.037,0,0,1-2.208.5,5.009,5.009,0,0,1-1.613-.21,1.528,1.528,0,0,1-.847-.631,2.071,2.071,0,0,1-.252-1.079h1a1.1,1.1,0,0,0,.145.606.9.9,0,0,0,.515.336,3.83,3.83,0,0,0,1.056.113,3.01,3.01,0,0,0,1.422-.246.8.8,0,0,0,.427-.737.762.762,0,0,0-.336-.672,1.656,1.656,0,0,0-.937-.228h-1a1.875,1.875,0,0,1-1.218-.343,1.066,1.066,0,0,1-.414-.858,1.119,1.119,0,0,1,.18-.6,1.748,1.748,0,0,1,.517-.515,1.986,1.986,0,0,1-.811-.715,1.965,1.965,0,0,1-.258-1.037,2.09,2.09,0,0,1,.319-1.14,2.148,2.148,0,0,1,.876-.786,2.714,2.714,0,0,1,1.242-.282,8.783,8.783,0,0,0,1.248-.054,4.26,4.26,0,0,0,.834-.181c.219-.075.489-.186.809-.33Zm-4.183.75a1.714,1.714,0,0,0,.007,2.064,1.244,1.244,0,0,0,.983.391,1.265,1.265,0,0,0,.99-.378,1.527,1.527,0,0,0,.342-1.062q0-1.4-1.355-1.4A1.221,1.221,0,0,0,687.893,515.274Z"/><g class="cls-1"><path d="M6.232,21.612a4.285,4.285,0,0,1-.946,3.015A6.269,6.269,0,0,1,2.578,26.22l-.63-1.71a3.62,3.62,0,0,0,1.2-.693,1.968,1.968,0,0,0,.55-.918,5.457,5.457,0,0,0,.143-1.377V10.992h2.4Z"/><path d="M16.212,21.729a1.1,1.1,0,0,0,.549.405l-.485,1.53a2.94,2.94,0,0,1-1.323-.4,2.031,2.031,0,0,1-.784-.99,3.045,3.045,0,0,1-1.215,1.071,3.705,3.705,0,0,1-1.628.351,3.076,3.076,0,0,1-2.25-.81,2.839,2.839,0,0,1-.829-2.124A2.748,2.748,0,0,1,9.372,18.4a5.4,5.4,0,0,1,3.213-.819h1.189v-.54a1.647,1.647,0,0,0-.423-1.287,2.045,2.045,0,0,0-1.359-.369,8.033,8.033,0,0,0-2.521.5l-.539-1.566a9.613,9.613,0,0,1,3.455-.684q3.656,0,3.654,3.276v4A1.528,1.528,0,0,0,16.212,21.729Zm-2.438-.873V18.93H12.82q-2.234,0-2.233,1.656a1.532,1.532,0,0,0,.342,1.062,1.294,1.294,0,0,0,1.009.378A2.04,2.04,0,0,0,13.774,20.856Z"/><path d="M21.135,9.84V23.43H18.83V10.092Zm5.706,4.068L23.672,18.1l3.475,5.328H24.5l-3.275-5.2,3.186-4.32Z"/><path d="M39.333,14.772l-.9,1.35a4.473,4.473,0,0,0-2.394-.774,1.858,1.858,0,0,0-1.062.261.8.8,0,0,0-.378.693.875.875,0,0,0,.162.54,1.475,1.475,0,0,0,.585.405,9.8,9.8,0,0,0,1.251.423,5.49,5.49,0,0,1,2.3,1.1,2.457,2.457,0,0,1,.747,1.908A2.558,2.558,0,0,1,38.487,22.9a4.893,4.893,0,0,1-2.862.8,6.05,6.05,0,0,1-2.133-.36,5.159,5.159,0,0,1-1.665-.99l1.152-1.3a4.249,4.249,0,0,0,2.592.936,2.194,2.194,0,0,0,1.233-.306.964.964,0,0,0,.459-.846,1.13,1.13,0,0,0-.171-.657,1.408,1.408,0,0,0-.612-.432A12.845,12.845,0,0,0,35.1,19.29a4.6,4.6,0,0,1-2.142-1.107,2.457,2.457,0,0,1-.684-1.773,2.355,2.355,0,0,1,.459-1.422,3.045,3.045,0,0,1,1.3-.99,4.812,4.812,0,0,1,1.917-.36A5.356,5.356,0,0,1,39.333,14.772Z"/><path d="M49.269,19.38H43.293a3.029,3.029,0,0,0,.72,1.98,2.227,2.227,0,0,0,1.62.594,3.394,3.394,0,0,0,1.189-.207,5.563,5.563,0,0,0,1.187-.639l.954,1.314A5.477,5.477,0,0,1,45.435,23.7a4.248,4.248,0,0,1-3.357-1.332A5.29,5.29,0,0,1,40.9,18.732a6.515,6.515,0,0,1,.5-2.619A4.149,4.149,0,0,1,42.862,14.3a4.34,4.34,0,0,1,5.363.612,5.234,5.234,0,0,1,1.1,3.537C49.324,18.564,49.305,18.876,49.269,19.38Zm-2.232-1.6q0-2.5-1.854-2.5a1.571,1.571,0,0,0-1.322.621,3.692,3.692,0,0,0-.568,1.989h3.744Z"/><path d="M67.828,14.421a3.1,3.1,0,0,1,.683,2.115V23.43h-2.3V16.9q0-1.53-1.044-1.53a1.418,1.418,0,0,0-.962.351,4.319,4.319,0,0,0-.837,1.089V23.43h-2.3V16.9q0-1.53-1.044-1.53a1.442,1.442,0,0,0-.98.351,4.319,4.319,0,0,0-.837,1.089V23.43h-2.3V13.908h2l.181,1.242a3.259,3.259,0,0,1,2.754-1.512,2.427,2.427,0,0,1,1.43.423,2.356,2.356,0,0,1,.873,1.179A4.441,4.441,0,0,1,64.4,14.052a3.047,3.047,0,0,1,1.594-.414A2.318,2.318,0,0,1,67.828,14.421Z"/><path d="M78.951,19.38H72.975a3.018,3.018,0,0,0,.72,1.98,2.227,2.227,0,0,0,1.62.594,3.388,3.388,0,0,0,1.188-.207,5.568,5.568,0,0,0,1.188-.639l.954,1.314A5.481,5.481,0,0,1,75.117,23.7a4.245,4.245,0,0,1-3.357-1.332,5.29,5.29,0,0,1-1.179-3.636,6.515,6.515,0,0,1,.5-2.619A4.156,4.156,0,0,1,72.543,14.3a4.342,4.342,0,0,1,5.364.612,5.233,5.233,0,0,1,1.1,3.537Q79.005,18.624,78.951,19.38ZM77.205,9.03l.882,1.008-2.5,2.25h-1.44l-2.5-2.25.882-1.008,2.34,1.584Zm-.486,8.748q0-2.5-1.854-2.5a1.575,1.575,0,0,0-1.323.621,3.7,3.7,0,0,0-.567,1.989h3.744Z"/><path d="M88.14,14.4a3.017,3.017,0,0,1,.711,2.133V23.43h-2.3V16.9a1.822,1.822,0,0,0-.3-1.188,1.09,1.09,0,0,0-.872-.342,1.7,1.7,0,0,0-1.071.369,4.21,4.21,0,0,0-.927,1.071V23.43h-2.3V13.908h2l.18,1.242a3.537,3.537,0,0,1,2.9-1.512A2.584,2.584,0,0,1,88.14,14.4Z"/><path d="M94.053,8.67l.936,1.8-4.068,1.62-.648-1.17Zm-.216,5.238V23.43h-2.3V13.908Z"/><path d="M108.705,14.952a6.687,6.687,0,0,1,.864,3.69,7.236,7.236,0,0,1-.441,2.619,3.987,3.987,0,0,1-1.3,1.791,3.257,3.257,0,0,1-2.025.648,2.969,2.969,0,0,1-2.394-1.044V27.1l-2.3.252V13.908h2.016l.126,1.17A3.723,3.723,0,0,1,104.529,14a3.338,3.338,0,0,1,1.512-.36A2.965,2.965,0,0,1,108.705,14.952Zm-1.548,3.708a5.265,5.265,0,0,0-.45-2.52,1.466,1.466,0,0,0-1.35-.774,1.855,1.855,0,0,0-1.08.351,3.064,3.064,0,0,0-.864.945v4.284a2.022,2.022,0,0,0,1.746.99Q107.157,21.936,107.157,18.66Z"/><path d="M119.009,14.979a5.385,5.385,0,0,1,1.18,3.681,6.122,6.122,0,0,1-.54,2.637A4.1,4.1,0,0,1,118.1,23.07a4.43,4.43,0,0,1-2.395.63,4.172,4.172,0,0,1-3.294-1.341,5.384,5.384,0,0,1-1.187-3.7,6.047,6.047,0,0,1,.54-2.628,4.084,4.084,0,0,1,1.557-1.764,4.466,4.466,0,0,1,2.4-.63A4.144,4.144,0,0,1,119.009,14.979Zm-5.354,3.681a4.741,4.741,0,0,0,.512,2.493,1.873,1.873,0,0,0,3.078-.009,4.737,4.737,0,0,0,.513-2.484,4.686,4.686,0,0,0-.513-2.475,1.687,1.687,0,0,0-1.52-.8Q113.654,15.384,113.655,18.66Z"/><path d="M128.739,14.772l-.9,1.35a4.472,4.472,0,0,0-2.393-.774,1.861,1.861,0,0,0-1.063.261A.8.8,0,0,0,124,16.3a.875.875,0,0,0,.162.54,1.475,1.475,0,0,0,.585.405A9.908,9.908,0,0,0,126,17.67a5.484,5.484,0,0,1,2.3,1.1,2.457,2.457,0,0,1,.747,1.908,2.555,2.555,0,0,1-1.152,2.223,4.892,4.892,0,0,1-2.861.8,6.052,6.052,0,0,1-2.134-.36,5.17,5.17,0,0,1-1.665-.99l1.152-1.3a4.252,4.252,0,0,0,2.592.936,2.189,2.189,0,0,0,1.233-.306.964.964,0,0,0,.459-.846,1.122,1.122,0,0,0-.171-.657,1.408,1.408,0,0,0-.612-.432,12.845,12.845,0,0,0-1.377-.459,4.6,4.6,0,0,1-2.141-1.107,2.457,2.457,0,0,1-.685-1.773,2.355,2.355,0,0,1,.459-1.422,3.052,3.052,0,0,1,1.3-.99,4.812,4.812,0,0,1,1.917-.36A5.361,5.361,0,0,1,128.739,14.772Z"/><path d="M136.37,22.98a3.661,3.661,0,0,1-1.125.54,4.529,4.529,0,0,1-1.268.18,2.823,2.823,0,0,1-2.133-.8,3.281,3.281,0,0,1-.729-2.313V15.564h-1.5V13.908h1.5V11.8l2.3-.27v2.376h2.214l-.233,1.656h-1.981v4.968a1.636,1.636,0,0,0,.243,1.008.92.92,0,0,0,.766.306,2.351,2.351,0,0,0,1.134-.342Z"/><path d="M144.7,21.729a1.094,1.094,0,0,0,.549.405l-.486,1.53a2.944,2.944,0,0,1-1.323-.4,2.024,2.024,0,0,1-.783-.99,3.052,3.052,0,0,1-1.215,1.071,3.707,3.707,0,0,1-1.629.351,3.079,3.079,0,0,1-2.25-.81,2.838,2.838,0,0,1-.828-2.124,2.748,2.748,0,0,1,1.125-2.367,5.4,5.4,0,0,1,3.213-.819h1.188v-.54a1.644,1.644,0,0,0-.423-1.287,2.045,2.045,0,0,0-1.359-.369,8.044,8.044,0,0,0-2.521.5l-.539-1.566a9.617,9.617,0,0,1,3.455-.684q3.656,0,3.655,3.276v4A1.519,1.519,0,0,0,144.7,21.729Zm-2.439-.873V18.93H141.3q-2.232,0-2.232,1.656a1.532,1.532,0,0,0,.341,1.062,1.294,1.294,0,0,0,1.009.378A2.038,2.038,0,0,0,142.256,20.856Z"/><path d="M154.7,13.908l-3.1,9.522h-2.755L145.7,13.908h2.5l2.034,7.668,2.088-7.668Z"/><path d="M162.983,21.729a1.094,1.094,0,0,0,.549.405l-.486,1.53a2.944,2.944,0,0,1-1.323-.4,2.024,2.024,0,0,1-.783-.99,3.052,3.052,0,0,1-1.215,1.071,3.707,3.707,0,0,1-1.629.351,3.079,3.079,0,0,1-2.25-.81,2.838,2.838,0,0,1-.828-2.124,2.748,2.748,0,0,1,1.125-2.367,5.4,5.4,0,0,1,3.213-.819h1.188v-.54a1.644,1.644,0,0,0-.423-1.287,2.045,2.045,0,0,0-1.359-.369,8.033,8.033,0,0,0-2.52.5l-.539-1.566a9.609,9.609,0,0,1,3.455-.684q3.654,0,3.654,3.276v4A1.528,1.528,0,0,0,162.983,21.729Zm-2.439-.873V18.93h-.954q-2.232,0-2.232,1.656a1.527,1.527,0,0,0,.342,1.062,1.29,1.29,0,0,0,1.008.378A2.038,2.038,0,0,0,160.544,20.856Z"/></g><path d="M10.265,46.625A3.428,3.428,0,0,1,9.4,49.078,3.28,3.28,0,0,1,6.89,50a3.287,3.287,0,0,1-2.512-.915,3.442,3.442,0,0,1-.863-2.46V39.561h.9V46.55a2.906,2.906,0,0,0,.608,1.98,2.357,2.357,0,0,0,1.867.69,2.322,2.322,0,0,0,1.861-.7,2.941,2.941,0,0,0,.6-1.973V39.561h.914Z"/><path d="M22.648,42.456a2.565,2.565,0,0,1,.562,1.77v5.609h-.869v-5.49a2.088,2.088,0,0,0-.375-1.38,1.388,1.388,0,0,0-1.111-.435,2.22,2.22,0,0,0-1.326.413,4.533,4.533,0,0,0-1.1,1.207v5.685h-.869V41.99h.75l.09,1.336a3.653,3.653,0,0,1,1.14-1.1,2.819,2.819,0,0,1,1.485-.4A2.068,2.068,0,0,1,22.648,42.456Z"/><path d="M31.851,46.25H26.615a3.652,3.652,0,0,0,.728,2.273,2.178,2.178,0,0,0,1.717.743,2.935,2.935,0,0,0,1.088-.188,4.771,4.771,0,0,0,1.027-.593l.406.556a4.423,4.423,0,0,1-1.2.719,3.726,3.726,0,0,1-1.365.24,3.007,3.007,0,0,1-2.445-1.064,4.494,4.494,0,0,1-.885-2.956,5.765,5.765,0,0,1,.383-2.182,3.287,3.287,0,0,1,1.095-1.455,2.746,2.746,0,0,1,1.657-.517A2.706,2.706,0,0,1,31.1,42.838a4.462,4.462,0,0,1,.779,2.783Q31.88,45.95,31.851,46.25Zm-.826-.9a3.417,3.417,0,0,0-.547-2.063,1.894,1.894,0,0,0-1.627-.743,1.922,1.922,0,0,0-1.576.75,3.881,3.881,0,0,0-.66,2.281h4.41Z"/><path d="M35.226,49.55A4.832,4.832,0,0,1,35,51.178a2.292,2.292,0,0,1-.66.975,5.353,5.353,0,0,1-1.23.727l-.256-.63a3.939,3.939,0,0,0,.879-.562,1.74,1.74,0,0,0,.465-.765,4.612,4.612,0,0,0,.156-1.342V41.99h.871Zm.029-10.83a.654.654,0,0,1,0,.9.649.649,0,0,1-.48.179.634.634,0,0,1-.465-.179.654.654,0,0,1,0-.9.634.634,0,0,1,.465-.179A.649.649,0,0,1,35.255,38.72Z"/><path d="M42.29,42.013a3.3,3.3,0,0,1,1.02.608l-.436.569a2.806,2.806,0,0,0-.8-.464,2.715,2.715,0,0,0-.938-.15,2.117,2.117,0,0,0-1.771.862,4.081,4.081,0,0,0-.661,2.513,3.908,3.908,0,0,0,.655,2.46,2.126,2.126,0,0,0,1.761.824,2.617,2.617,0,0,0,.954-.165,3.559,3.559,0,0,0,.861-.494l.42.585a3.381,3.381,0,0,1-2.25.839,3.189,3.189,0,0,1-1.754-.479,3.14,3.14,0,0,1-1.164-1.388,5.222,5.222,0,0,1-.412-2.168,5.4,5.4,0,0,1,.412-2.182,3.314,3.314,0,0,1,1.164-1.448,3.026,3.026,0,0,1,1.74-.509A3.551,3.551,0,0,1,42.29,42.013Zm.631-3.713.389.45-1.936,1.59h-.539l-1.949-1.59.389-.45,1.83,1.261Z"/><path d="M50.322,48.98a.956.956,0,0,0,.5.405l-.2.615A1.544,1.544,0,0,1,49.8,49.6a1.617,1.617,0,0,1-.383-.914A2.679,2.679,0,0,1,46.97,50a2.433,2.433,0,0,1-1.777-.637,2.267,2.267,0,0,1-.653-1.7,2.224,2.224,0,0,1,.862-1.875,3.857,3.857,0,0,1,2.392-.661h1.5V44.36a1.542,1.542,0,0,0-1.814-1.8,6.339,6.339,0,0,0-2.129.449l-.227-.659a6.7,6.7,0,0,1,2.477-.525,2.234,2.234,0,0,1,2.564,2.489V48.1A1.86,1.86,0,0,0,50.322,48.98Zm-1.028-1.064V45.755H47.931a3.056,3.056,0,0,0-1.83.465,1.625,1.625,0,0,0-.631,1.4,1.681,1.681,0,0,0,.436,1.245,1.64,1.64,0,0,0,1.214.435A2.38,2.38,0,0,0,49.294,47.916Z"/><path d="M56.435,42.043a4.419,4.419,0,0,1,1.17.652l-.4.571a4.47,4.47,0,0,0-1.02-.548,3.086,3.086,0,0,0-1.051-.173,2.058,2.058,0,0,0-1.26.36,1.143,1.143,0,0,0-.48.96,1.048,1.048,0,0,0,.414.885,4.527,4.527,0,0,0,1.492.6,4.756,4.756,0,0,1,1.928.869,1.9,1.9,0,0,1,.592,1.5,1.978,1.978,0,0,1-.811,1.665A3.25,3.25,0,0,1,54.98,50a4.323,4.323,0,0,1-1.574-.262A4.227,4.227,0,0,1,52.175,49l.481-.556a3.837,3.837,0,0,0,1.072.623,3.548,3.548,0,0,0,1.238.2,2.291,2.291,0,0,0,1.4-.4,1.3,1.3,0,0,0,.531-1.1,1.5,1.5,0,0,0-.18-.781,1.433,1.433,0,0,0-.615-.517,7.093,7.093,0,0,0-1.274-.443,4.386,4.386,0,0,1-1.793-.824,1.692,1.692,0,0,1-.546-1.321,1.747,1.747,0,0,1,.343-1.057,2.278,2.278,0,0,1,.938-.735,3.242,3.242,0,0,1,1.328-.262A3.885,3.885,0,0,1,56.435,42.043Z"/><path d="M63.71,49.505A2.931,2.931,0,0,1,62.06,50a1.86,1.86,0,0,1-1.41-.532,2.136,2.136,0,0,1-.51-1.537V42.7H58.82v-.7h1.32V40.115l.871-.105v1.98h2.025l-.105.7h-1.92v5.19a1.559,1.559,0,0,0,.285,1.028,1.073,1.073,0,0,0,.869.337,2.386,2.386,0,0,0,1.2-.345Z"/><path d="M70.611,46.25H65.374a3.652,3.652,0,0,0,.729,2.273,2.177,2.177,0,0,0,1.717.743,2.935,2.935,0,0,0,1.088-.188,4.771,4.771,0,0,0,1.027-.593l.406.556a4.423,4.423,0,0,1-1.2.719,3.726,3.726,0,0,1-1.365.24,3.009,3.009,0,0,1-2.446-1.064,4.5,4.5,0,0,1-.884-2.956,5.765,5.765,0,0,1,.383-2.182,3.279,3.279,0,0,1,1.095-1.455,2.745,2.745,0,0,1,1.656-.517,2.708,2.708,0,0,1,2.282,1.012,4.462,4.462,0,0,1,.779,2.783Q70.64,45.95,70.611,46.25Zm-.826-.9a3.417,3.417,0,0,0-.547-2.063,1.9,1.9,0,0,0-1.627-.743,1.92,1.92,0,0,0-1.576.75,3.881,3.881,0,0,0-.661,2.281h4.411ZM69.441,38.3l.388.45L67.9,40.34h-.541l-1.949-1.59.388-.45,1.83,1.261Z"/><path d="M73.986,49.55a4.832,4.832,0,0,1-.225,1.628,2.292,2.292,0,0,1-.66.975,5.341,5.341,0,0,1-1.231.727l-.255-.63a3.987,3.987,0,0,0,.879-.562,1.73,1.73,0,0,0,.464-.765,4.572,4.572,0,0,0,.157-1.342V41.99h.871Zm.029-10.83a.654.654,0,0,1,0,.9.649.649,0,0,1-.48.179.634.634,0,0,1-.465-.179.654.654,0,0,1,0-.9.634.634,0,0,1,.465-.179A.649.649,0,0,1,74.015,38.72Z"/><path d="M80.419,42.043a4.4,4.4,0,0,1,1.17.652l-.4.571a4.429,4.429,0,0,0-1.02-.548,3.084,3.084,0,0,0-1.05-.173,2.054,2.054,0,0,0-1.26.36,1.144,1.144,0,0,0-.481.96,1.048,1.048,0,0,0,.414.885,4.525,4.525,0,0,0,1.493.6,4.758,4.758,0,0,1,1.927.869,1.9,1.9,0,0,1,.592,1.5,1.977,1.977,0,0,1-.81,1.665A3.251,3.251,0,0,1,78.964,50a4.326,4.326,0,0,1-1.574-.262A4.235,4.235,0,0,1,76.16,49l.48-.556a3.851,3.851,0,0,0,1.072.623,3.558,3.558,0,0,0,1.239.2,2.288,2.288,0,0,0,1.4-.4,1.3,1.3,0,0,0,.531-1.1,1.486,1.486,0,0,0-.18-.781,1.433,1.433,0,0,0-.615-.517,7.106,7.106,0,0,0-1.273-.443,4.38,4.38,0,0,1-1.793-.824,1.693,1.693,0,0,1-.547-1.321,1.741,1.741,0,0,1,.344-1.057,2.275,2.275,0,0,1,.937-.735,3.245,3.245,0,0,1,1.328-.262A3.877,3.877,0,0,1,80.419,42.043ZM80.99,38.3l.39.45-1.935,1.59h-.539l-1.952-1.59.391-.45,1.83,1.261Z"/><path d="M85.685,38.1l.391.78L83.15,40.161l-.285-.511ZM85,41.99v7.845h-.871V41.99Z"/><path d="M92.06,42.013a3.3,3.3,0,0,1,1.019.608l-.435.569a2.811,2.811,0,0,0-.8-.464,2.709,2.709,0,0,0-.937-.15,2.119,2.119,0,0,0-1.772.862,4.088,4.088,0,0,0-.66,2.513,3.914,3.914,0,0,0,.654,2.46,2.129,2.129,0,0,0,1.762.824,2.608,2.608,0,0,0,.953-.165,3.559,3.559,0,0,0,.861-.494l.42.585a3.381,3.381,0,0,1-2.25.839,3.189,3.189,0,0,1-1.754-.479,3.147,3.147,0,0,1-1.164-1.388,5.238,5.238,0,0,1-.412-2.168,5.413,5.413,0,0,1,.412-2.182,3.321,3.321,0,0,1,1.164-1.448,3.03,3.03,0,0,1,1.741-.509A3.555,3.555,0,0,1,92.06,42.013Z"/><path d="M100.294,42.463a2.557,2.557,0,0,1,.571,1.763v5.609h-.871v-5.49q0-1.813-1.485-1.815a2.228,2.228,0,0,0-1.328.413,4.529,4.529,0,0,0-1.1,1.207v5.685h-.871V38.8l.871-.105V43.3a3.1,3.1,0,0,1,2.594-1.469A2.062,2.062,0,0,1,100.294,42.463Z"/><path d="M112.384,41.99v.676l-4.379,6.419h4.35l-.09.75h-5.281v-.674l4.381-6.421h-4.02v-.75Z"/><path d="M119.57,42.463a2.557,2.557,0,0,1,.57,1.763v5.609h-.871v-5.49q0-1.813-1.484-1.815a2.231,2.231,0,0,0-1.329.413,4.527,4.527,0,0,0-1.1,1.207v5.685h-.871V38.8l.871-.105V43.3a3.1,3.1,0,0,1,2.594-1.469A2.062,2.062,0,0,1,119.57,42.463Z"/><path d="M128.382,42.9a4.606,4.606,0,0,1,.877,2.993,4.645,4.645,0,0,1-.892,3.007,3.261,3.261,0,0,1-4.875.015,4.645,4.645,0,0,1-.877-2.993,5.406,5.406,0,0,1,.4-2.174,3.018,3.018,0,0,1,2.926-1.92A2.977,2.977,0,0,1,128.382,42.9Zm-4.209.518a4.184,4.184,0,0,0-.629,2.5,4.193,4.193,0,0,0,.623,2.491,2.052,2.052,0,0,0,1.762.855,2.093,2.093,0,0,0,1.777-.855,4.178,4.178,0,0,0,.639-2.52,4.17,4.17,0,0,0-.623-2.483,2.276,2.276,0,0,0-3.549.008Z"/><path d="M137.314,49.835h-.75l-.045-1.4A2.861,2.861,0,0,1,133.954,50a2.128,2.128,0,0,1-1.642-.622,2.517,2.517,0,0,1-.578-1.777V41.99h.871v5.52a1.969,1.969,0,0,0,.383,1.343,1.478,1.478,0,0,0,1.162.427,2.68,2.68,0,0,0,2.295-1.605V41.99h.869Z"/><path d="M145.833,42.875a5.117,5.117,0,0,1,.75,3,5.119,5.119,0,0,1-.787,3.016A2.544,2.544,0,0,1,143.6,50a2.633,2.633,0,0,1-1.283-.314,2.941,2.941,0,0,1-.967-.841l-.09.99h-.765V38.8l.871-.105v4.4a2.818,2.818,0,0,1,2.355-1.259A2.448,2.448,0,0,1,145.833,42.875Zm-.755,5.543a4.6,4.6,0,0,0,.576-2.543q0-3.33-2.116-3.33a2.083,2.083,0,0,0-1.214.353,3.878,3.878,0,0,0-.959,1v4.125a2.973,2.973,0,0,0,.9.922,2.113,2.113,0,0,0,1.17.337A1.865,1.865,0,0,0,145.078,48.418Z"/><path d="M154.3,42.456a2.565,2.565,0,0,1,.563,1.77v5.609h-.871v-5.49a2.088,2.088,0,0,0-.375-1.38,1.385,1.385,0,0,0-1.11-.435,2.228,2.228,0,0,0-1.328.413,4.529,4.529,0,0,0-1.1,1.207v5.685h-.871V41.99h.75l.09,1.336a3.678,3.678,0,0,1,1.141-1.1,2.818,2.818,0,0,1,1.484-.4A2.07,2.07,0,0,1,154.3,42.456Z"/><path d="M160.339,49.865a7.087,7.087,0,0,1-.689,1.5,3.156,3.156,0,0,1-.977.968,4.394,4.394,0,0,1-1.545.563l-.09-.676a4.146,4.146,0,0,0,1.223-.48,2.218,2.218,0,0,0,.705-.712,6.319,6.319,0,0,0,.533-1.193h-.3l-2.731-7.845h.945l2.372,7.2,2.324-7.2h.916Zm.539-11.76.391.78-2.926,1.276-.283-.511Z"/><path d="M168.708,42.013a3.286,3.286,0,0,1,1.022.608l-.436.569a2.789,2.789,0,0,0-.8-.464,2.715,2.715,0,0,0-.938-.15,2.111,2.111,0,0,0-1.769.862,4.068,4.068,0,0,0-.661,2.513,3.908,3.908,0,0,0,.653,2.46,2.128,2.128,0,0,0,1.761.824,2.61,2.61,0,0,0,.954-.165,3.608,3.608,0,0,0,.863-.494l.42.585a3.381,3.381,0,0,1-2.25.839,3.2,3.2,0,0,1-1.756-.479,3.137,3.137,0,0,1-1.162-1.388,5.19,5.19,0,0,1-.412-2.168,5.363,5.363,0,0,1,.412-2.182,3.31,3.31,0,0,1,1.162-1.448,3.026,3.026,0,0,1,1.74-.509A3.551,3.551,0,0,1,168.708,42.013Z"/><path d="M176.945,42.463a2.557,2.557,0,0,1,.57,1.763v5.609h-.871v-5.49q0-1.813-1.484-1.815a2.231,2.231,0,0,0-1.329.413,4.527,4.527,0,0,0-1.1,1.207v5.685h-.871V38.8l.871-.105V43.3a3.1,3.1,0,0,1,2.594-1.469A2.062,2.062,0,0,1,176.945,42.463Z"/><path d="M189.9,42.456a2.565,2.565,0,0,1,.562,1.77v5.609h-.869v-5.49a2.088,2.088,0,0,0-.375-1.38,1.388,1.388,0,0,0-1.111-.435,2.22,2.22,0,0,0-1.326.413,4.533,4.533,0,0,0-1.1,1.207v5.685H184.8V41.99h.75l.09,1.336a3.646,3.646,0,0,1,1.141-1.1,2.813,2.813,0,0,1,1.484-.4A2.068,2.068,0,0,1,189.9,42.456Z"/><path d="M198.6,48.98a.964.964,0,0,0,.5.405L198.9,50a1.537,1.537,0,0,1-.832-.405,1.6,1.6,0,0,1-.383-.914A2.68,2.68,0,0,1,195.244,50a2.437,2.437,0,0,1-1.778-.637,2.27,2.27,0,0,1-.652-1.7,2.223,2.223,0,0,1,.861-1.875,3.858,3.858,0,0,1,2.393-.661h1.5V44.36a1.542,1.542,0,0,0-1.815-1.8,6.349,6.349,0,0,0-2.129.449l-.226-.659a6.7,6.7,0,0,1,2.476-.525,2.235,2.235,0,0,1,2.565,2.489V48.1A1.875,1.875,0,0,0,198.6,48.98Zm-1.027-1.064V45.755H196.2a3.058,3.058,0,0,0-1.83.465,1.624,1.624,0,0,0-.63,1.4,1.681,1.681,0,0,0,.435,1.245,1.641,1.641,0,0,0,1.215.435A2.382,2.382,0,0,0,197.568,47.916Zm-.6-9.811.391.78-2.926,1.276-.285-.511Z"/><path d="M207.2,38.8v11.04h-.75l-.106-1.2A2.582,2.582,0,0,1,203.988,50a2.518,2.518,0,0,1-2.153-1.087,4.971,4.971,0,0,1-.787-2.962,5.829,5.829,0,0,1,.367-2.145,3.286,3.286,0,0,1,1.067-1.455,2.647,2.647,0,0,1,1.642-.525,2.728,2.728,0,0,1,2.205,1.065v-4.2ZM205.392,48.92a3.306,3.306,0,0,0,.937-1.094v-4.1a2.465,2.465,0,0,0-2.056-1.185,1.961,1.961,0,0,0-1.688.886,4.247,4.247,0,0,0-.607,2.505,4.51,4.51,0,0,0,.57,2.482,1.792,1.792,0,0,0,1.576.862A2.161,2.161,0,0,0,205.392,48.92Z"/><path d="M215.517,42.9a4.606,4.606,0,0,1,.877,2.993A4.639,4.639,0,0,1,215.5,48.9a3.261,3.261,0,0,1-4.875.015,4.645,4.645,0,0,1-.877-2.993,5.406,5.406,0,0,1,.405-2.174,3.018,3.018,0,0,1,2.925-1.92A2.978,2.978,0,0,1,215.517,42.9Zm-4.209.518a4.184,4.184,0,0,0-.629,2.5,4.193,4.193,0,0,0,.623,2.491,2.052,2.052,0,0,0,1.762.855,2.094,2.094,0,0,0,1.777-.855,4.178,4.178,0,0,0,.639-2.52,4.17,4.17,0,0,0-.623-2.483,2.276,2.276,0,0,0-3.549.008Z"/><path d="M222.769,41.916l-.166.824a2.642,2.642,0,0,0-.69-.09,1.6,1.6,0,0,0-1.283.578,4.744,4.744,0,0,0-.816,1.808v4.8h-.871V41.99h.75l.076,1.756a3.13,3.13,0,0,1,.861-1.448,2.007,2.007,0,0,1,1.358-.472A2.856,2.856,0,0,1,222.769,41.916Z"/><path d="M230.042,49.835h-.75l-.045-1.4A2.859,2.859,0,0,1,226.683,50a2.129,2.129,0,0,1-1.643-.622,2.522,2.522,0,0,1-.578-1.777V41.99h.871v5.52a1.969,1.969,0,0,0,.383,1.343,1.48,1.48,0,0,0,1.162.427,2.68,2.68,0,0,0,2.3-1.605V41.99h.869ZM228.31,37.918a1.445,1.445,0,0,1,0,2.025,1.46,1.46,0,0,1-1.057.4,1.481,1.481,0,0,1-1.072-.4,1.45,1.45,0,0,1,0-2.025,1.481,1.481,0,0,1,1.072-.4A1.46,1.46,0,0,1,228.31,37.918Zm-1.68.375a1.057,1.057,0,0,0,0,1.283.828.828,0,0,0,.623.224.806.806,0,0,0,.608-.224,1.057,1.057,0,0,0,0-1.283.792.792,0,0,0-.608-.232A.813.813,0,0,0,226.63,38.293Z"/><path d="M240.663,42.043a4.419,4.419,0,0,1,1.17.652l-.4.571a4.5,4.5,0,0,0-1.021-.548,3.086,3.086,0,0,0-1.049-.173,2.045,2.045,0,0,0-1.26.36,1.143,1.143,0,0,0-.48.96,1.044,1.044,0,0,0,.412.885,4.547,4.547,0,0,0,1.492.6,4.743,4.743,0,0,1,1.928.869,1.9,1.9,0,0,1,.591,1.5,1.98,1.98,0,0,1-.808,1.665,3.255,3.255,0,0,1-2.026.615,4.326,4.326,0,0,1-1.574-.262A4.183,4.183,0,0,1,236.4,49l.48-.556a3.851,3.851,0,0,0,1.072.623,3.546,3.546,0,0,0,1.237.2,2.281,2.281,0,0,0,1.4-.4,1.3,1.3,0,0,0,.533-1.1,1.515,1.515,0,0,0-.179-.781,1.461,1.461,0,0,0-.616-.517,7.108,7.108,0,0,0-1.275-.443,4.38,4.38,0,0,1-1.793-.824,1.693,1.693,0,0,1-.547-1.321,1.743,1.743,0,0,1,.346-1.057,2.249,2.249,0,0,1,.937-.735,3.237,3.237,0,0,1,1.327-.262A3.9,3.9,0,0,1,240.663,42.043Z"/><path d="M249.9,46.25h-5.237a3.652,3.652,0,0,0,.729,2.273,2.177,2.177,0,0,0,1.717.743,2.935,2.935,0,0,0,1.088-.188,4.771,4.771,0,0,0,1.027-.593l.406.556a4.423,4.423,0,0,1-1.2.719,3.726,3.726,0,0,1-1.365.24,3.009,3.009,0,0,1-2.446-1.064,4.5,4.5,0,0,1-.884-2.956,5.785,5.785,0,0,1,.382-2.182,3.288,3.288,0,0,1,1.1-1.455,2.745,2.745,0,0,1,1.656-.517,2.708,2.708,0,0,1,2.282,1.012,4.462,4.462,0,0,1,.779,2.783Q249.933,45.95,249.9,46.25Zm-.826-.9a3.417,3.417,0,0,0-.547-2.063,1.9,1.9,0,0,0-1.627-.743,1.92,1.92,0,0,0-1.576.75,3.881,3.881,0,0,0-.661,2.281h4.411Z"/><path d="M262.1,49.835h-.75l-.045-1.4A2.859,2.859,0,0,1,258.738,50a2.129,2.129,0,0,1-1.643-.622,2.517,2.517,0,0,1-.578-1.777V41.99h.871v5.52a1.969,1.969,0,0,0,.383,1.343,1.478,1.478,0,0,0,1.162.427,2.68,2.68,0,0,0,2.3-1.605V41.99h.869ZM260.433,38.1l.391.78L257.9,40.161l-.285-.511Z"/><path d="M268.533,42.043a4.45,4.45,0,0,1,1.17.652l-.4.571a4.5,4.5,0,0,0-1.021-.548,3.086,3.086,0,0,0-1.049-.173,2.045,2.045,0,0,0-1.26.36,1.143,1.143,0,0,0-.48.96,1.044,1.044,0,0,0,.412.885,4.547,4.547,0,0,0,1.492.6,4.737,4.737,0,0,1,1.928.869,1.9,1.9,0,0,1,.591,1.5,1.98,1.98,0,0,1-.808,1.665,3.254,3.254,0,0,1-2.025.615,4.332,4.332,0,0,1-1.575-.262,4.183,4.183,0,0,1-1.23-.742l.48-.556a3.841,3.841,0,0,0,1.073.623,3.537,3.537,0,0,0,1.236.2,2.281,2.281,0,0,0,1.4-.4,1.3,1.3,0,0,0,.533-1.1,1.515,1.515,0,0,0-.179-.781,1.457,1.457,0,0,0-.615-.517,7.152,7.152,0,0,0-1.276-.443,4.38,4.38,0,0,1-1.793-.824,1.693,1.693,0,0,1-.547-1.321,1.75,1.75,0,0,1,.346-1.057,2.249,2.249,0,0,1,.937-.735,3.237,3.237,0,0,1,1.327-.262A3.9,3.9,0,0,1,268.533,42.043Z"/><path d="M277.615,42.883a5.333,5.333,0,0,1,.713,2.992,5.2,5.2,0,0,1-.774,3.008A2.525,2.525,0,0,1,275.343,50a2.745,2.745,0,0,1-1.275-.292,2.876,2.876,0,0,1-.961-.788v3.871l-.869.12V41.99h.75l.074,1.14a3.181,3.181,0,0,1,1.058-.96,2.755,2.755,0,0,1,1.358-.344A2.4,2.4,0,0,1,277.615,42.883Zm-.787,5.528a4.618,4.618,0,0,0,.57-2.536q0-3.33-2.086-3.33a2.1,2.1,0,0,0-1.223.36,4.336,4.336,0,0,0-.982.991v4.169a2.371,2.371,0,0,0,2.07,1.2A1.865,1.865,0,0,0,276.828,48.411Z"/><path d="M286.488,46.25h-5.237a3.652,3.652,0,0,0,.729,2.273,2.177,2.177,0,0,0,1.717.743,2.935,2.935,0,0,0,1.088-.188,4.771,4.771,0,0,0,1.027-.593l.406.556a4.423,4.423,0,0,1-1.2.719,3.726,3.726,0,0,1-1.365.24,3.009,3.009,0,0,1-2.446-1.064,4.5,4.5,0,0,1-.884-2.956A5.785,5.785,0,0,1,280.7,43.8a3.288,3.288,0,0,1,1.1-1.455,2.745,2.745,0,0,1,1.656-.517,2.708,2.708,0,0,1,2.282,1.012,4.462,4.462,0,0,1,.779,2.783Q286.517,45.95,286.488,46.25Zm-.827-.9a3.417,3.417,0,0,0-.546-2.063,1.9,1.9,0,0,0-1.627-.743,1.923,1.923,0,0,0-1.577.75,3.888,3.888,0,0,0-.66,2.281h4.41Zm-.343-7.051.388.45-1.933,1.59h-.541l-1.949-1.59.388-.45,1.83,1.261Z"/><path d="M292.247,42.043a4.434,4.434,0,0,1,1.17.652l-.4.571a4.5,4.5,0,0,0-1.021-.548,3.086,3.086,0,0,0-1.049-.173,2.045,2.045,0,0,0-1.26.36,1.143,1.143,0,0,0-.48.96,1.044,1.044,0,0,0,.412.885,4.547,4.547,0,0,0,1.492.6,4.743,4.743,0,0,1,1.928.869,1.9,1.9,0,0,1,.591,1.5,1.98,1.98,0,0,1-.808,1.665,3.255,3.255,0,0,1-2.026.615,4.326,4.326,0,0,1-1.574-.262,4.183,4.183,0,0,1-1.23-.742l.48-.556a3.851,3.851,0,0,0,1.072.623,3.546,3.546,0,0,0,1.237.2,2.281,2.281,0,0,0,1.4-.4,1.3,1.3,0,0,0,.533-1.1,1.515,1.515,0,0,0-.179-.781,1.467,1.467,0,0,0-.616-.517,7.108,7.108,0,0,0-1.275-.443,4.38,4.38,0,0,1-1.793-.824,1.693,1.693,0,0,1-.547-1.321,1.743,1.743,0,0,1,.346-1.057,2.249,2.249,0,0,1,.937-.735,3.236,3.236,0,0,1,1.326-.262A3.9,3.9,0,0,1,292.247,42.043Zm.571-3.743.388.45-1.933,1.59h-.541l-1.949-1.59.388-.45L291,39.561Z"/><path d="M301.044,42.456a2.565,2.565,0,0,1,.563,1.77v5.609h-.869v-5.49a2.088,2.088,0,0,0-.375-1.38,1.388,1.388,0,0,0-1.112-.435,2.222,2.222,0,0,0-1.326.413,4.515,4.515,0,0,0-1.1,1.207v5.685h-.869V41.99h.75l.089,1.336a3.667,3.667,0,0,1,1.141-1.1,2.816,2.816,0,0,1,1.484-.4A2.068,2.068,0,0,1,301.044,42.456Z"/><path d="M309.849,42.9a4.594,4.594,0,0,1,.879,2.993,4.651,4.651,0,0,1-.893,3.007,3.261,3.261,0,0,1-4.875.015,4.634,4.634,0,0,1-.879-2.993,5.372,5.372,0,0,1,.407-2.174,3.017,3.017,0,0,1,2.923-1.92A2.972,2.972,0,0,1,309.849,42.9Zm-4.207.518a4.183,4.183,0,0,0-.631,2.5,4.208,4.208,0,0,0,.623,2.491,2.055,2.055,0,0,0,1.764.855,2.094,2.094,0,0,0,1.777-.855,4.193,4.193,0,0,0,.637-2.52,4.156,4.156,0,0,0-.623-2.483,2.273,2.273,0,0,0-3.547.008Z"/><path d="M316.533,42.043a4.45,4.45,0,0,1,1.17.652l-.4.571a4.5,4.5,0,0,0-1.021-.548,3.086,3.086,0,0,0-1.049-.173,2.045,2.045,0,0,0-1.26.36,1.143,1.143,0,0,0-.48.96,1.044,1.044,0,0,0,.412.885,4.547,4.547,0,0,0,1.492.6,4.737,4.737,0,0,1,1.928.869,1.9,1.9,0,0,1,.591,1.5,1.98,1.98,0,0,1-.808,1.665,3.254,3.254,0,0,1-2.025.615,4.332,4.332,0,0,1-1.575-.262,4.183,4.183,0,0,1-1.23-.742l.48-.556a3.841,3.841,0,0,0,1.073.623,3.537,3.537,0,0,0,1.236.2,2.281,2.281,0,0,0,1.4-.4,1.3,1.3,0,0,0,.533-1.1,1.515,1.515,0,0,0-.179-.781,1.457,1.457,0,0,0-.615-.517,7.152,7.152,0,0,0-1.276-.443,4.38,4.38,0,0,1-1.793-.824,1.693,1.693,0,0,1-.547-1.321,1.75,1.75,0,0,1,.346-1.057,2.249,2.249,0,0,1,.937-.735,3.237,3.237,0,0,1,1.327-.262A3.9,3.9,0,0,1,316.533,42.043Z"/><path d="M323.808,49.505a2.936,2.936,0,0,1-1.65.495,1.862,1.862,0,0,1-1.411-.532,2.14,2.14,0,0,1-.509-1.537V42.7h-1.321v-.7h1.321V40.115l.869-.105v1.98h2.025l-.105.7h-1.92v5.19a1.571,1.571,0,0,0,.285,1.028,1.074,1.074,0,0,0,.871.337,2.381,2.381,0,0,0,1.2-.345Z"/><path d="M329.829,49.625a1.528,1.528,0,0,1-.367-1.109V38.8l.869-.105v9.8c0,.511.211.765.631.765a1.276,1.276,0,0,0,.539-.1l.241.645a2,2,0,0,1-.9.209A1.351,1.351,0,0,1,329.829,49.625Z"/><path d="M339.257,46.25h-5.236a3.658,3.658,0,0,0,.728,2.273,2.178,2.178,0,0,0,1.717.743,2.932,2.932,0,0,0,1.088-.188,4.748,4.748,0,0,0,1.027-.593l.407.556a4.428,4.428,0,0,1-1.2.719,3.726,3.726,0,0,1-1.365.24,3.007,3.007,0,0,1-2.445-1.064,4.494,4.494,0,0,1-.885-2.956,5.765,5.765,0,0,1,.383-2.182,3.281,3.281,0,0,1,1.1-1.455,2.741,2.741,0,0,1,1.656-.517,2.705,2.705,0,0,1,2.281,1.012,4.455,4.455,0,0,1,.779,2.783C339.286,45.84,339.277,46.05,339.257,46.25Zm-.826-.9a3.417,3.417,0,0,0-.547-2.063,1.894,1.894,0,0,0-1.627-.743,1.922,1.922,0,0,0-1.576.75,3.888,3.888,0,0,0-.66,2.281h4.41ZM337.4,38.1l.39.78-2.923,1.276-.285-.511Z"/><path d="M345.646,42.013a3.293,3.293,0,0,1,1.021.608l-.435.569a2.806,2.806,0,0,0-.8-.464,2.709,2.709,0,0,0-.937-.15,2.112,2.112,0,0,0-1.77.862,4.074,4.074,0,0,0-.66,2.513,3.915,3.915,0,0,0,.652,2.46,2.131,2.131,0,0,0,1.762.824,2.6,2.6,0,0,0,.953-.165,3.608,3.608,0,0,0,.863-.494l.42.585a3.381,3.381,0,0,1-2.25.839,3.2,3.2,0,0,1-1.756-.479,3.143,3.143,0,0,1-1.162-1.388,5.206,5.206,0,0,1-.412-2.168,5.38,5.38,0,0,1,.412-2.182,3.317,3.317,0,0,1,1.162-1.448,3.027,3.027,0,0,1,1.741-.509A3.555,3.555,0,0,1,345.646,42.013Zm.631-3.713.39.45-1.935,1.59h-.541l-1.949-1.59.39-.45,1.83,1.261Z"/><path d="M354.078,46.25h-5.237a3.652,3.652,0,0,0,.729,2.273,2.176,2.176,0,0,0,1.716.743,2.928,2.928,0,0,0,1.088-.188,4.752,4.752,0,0,0,1.028-.593l.406.556a4.438,4.438,0,0,1-1.2.719,3.726,3.726,0,0,1-1.365.24,3.009,3.009,0,0,1-2.446-1.064,4.494,4.494,0,0,1-.885-2.956,5.765,5.765,0,0,1,.383-2.182,3.281,3.281,0,0,1,1.1-1.455,2.743,2.743,0,0,1,1.656-.517,2.708,2.708,0,0,1,2.282,1.012,4.462,4.462,0,0,1,.779,2.783Q354.107,45.95,354.078,46.25Zm-.827-.9a3.41,3.41,0,0,0-.547-2.063,1.893,1.893,0,0,0-1.626-.743,1.923,1.923,0,0,0-1.577.75,3.888,3.888,0,0,0-.66,2.281h4.41Z"/><path d="M361.675,42.456a2.565,2.565,0,0,1,.563,1.77v5.609h-.871v-5.49a2.088,2.088,0,0,0-.375-1.38,1.385,1.385,0,0,0-1.11-.435,2.228,2.228,0,0,0-1.328.413,4.511,4.511,0,0,0-1.1,1.207v5.685h-.872V41.99h.75l.09,1.336a3.678,3.678,0,0,1,1.141-1.1,2.818,2.818,0,0,1,1.484-.4A2.07,2.07,0,0,1,361.675,42.456Z"/><path d="M366.9,38.1l.39.78-2.925,1.276-.286-.511Zm-.69,3.885v7.845h-.871V41.99Z"/><path d="M378.954,42.883a5.326,5.326,0,0,1,.711,2.992,5.2,5.2,0,0,1-.771,3.008A2.528,2.528,0,0,1,376.681,50a2.748,2.748,0,0,1-1.275-.292,2.879,2.879,0,0,1-.959-.788v3.871l-.871.12V41.99h.75l.076,1.14a3.175,3.175,0,0,1,1.056-.96,2.758,2.758,0,0,1,1.358-.344A2.406,2.406,0,0,1,378.954,42.883Zm-.789,5.528a4.591,4.591,0,0,0,.571-2.536q0-3.33-2.084-3.33a2.091,2.091,0,0,0-1.223.36,4.257,4.257,0,0,0-.982.991v4.169a2.368,2.368,0,0,0,2.07,1.2A1.86,1.86,0,0,0,378.165,48.411Z"/><path d="M387.429,42.9a4.606,4.606,0,0,1,.877,2.993,4.639,4.639,0,0,1-.893,3.007,3.261,3.261,0,0,1-4.875.015,4.645,4.645,0,0,1-.877-2.993,5.406,5.406,0,0,1,.4-2.174,3.018,3.018,0,0,1,2.926-1.92A2.977,2.977,0,0,1,387.429,42.9Zm-4.209.518a4.184,4.184,0,0,0-.629,2.5,4.193,4.193,0,0,0,.623,2.491,2.052,2.052,0,0,0,1.762.855,2.093,2.093,0,0,0,1.777-.855,4.178,4.178,0,0,0,.639-2.52,4.17,4.17,0,0,0-.623-2.483,2.276,2.276,0,0,0-3.549.008Z"/><path d="M395.941,42.463a2.547,2.547,0,0,1,.57,1.763v5.609h-.869v-5.49q0-1.813-1.486-1.815a2.225,2.225,0,0,0-1.327.413,4.548,4.548,0,0,0-1.1,1.207v5.685h-.869V38.8l.869-.105V43.3a3.106,3.106,0,0,1,2.6-1.469A2.058,2.058,0,0,1,395.941,42.463Z"/><path d="M401.986,49.865a6.987,6.987,0,0,1-.69,1.5,3.157,3.157,0,0,1-.974.968,4.432,4.432,0,0,1-1.545.563l-.09-.676a4.158,4.158,0,0,0,1.223-.48,2.249,2.249,0,0,0,.7-.712,6.6,6.6,0,0,0,.531-1.193h-.3l-2.73-7.845h.945l2.369,7.2,2.326-7.2h.914Z"/><path d="M411.841,42.875a5.117,5.117,0,0,1,.75,3,5.126,5.126,0,0,1-.787,3.016,2.544,2.544,0,0,1-2.2,1.109,2.63,2.63,0,0,1-1.283-.314,2.941,2.941,0,0,1-.967-.841l-.09.99H406.5V38.8l.869-.105v4.4a2.826,2.826,0,0,1,2.356-1.259A2.449,2.449,0,0,1,411.841,42.875Zm-.758,5.543a4.587,4.587,0,0,0,.578-2.543q0-3.33-2.115-3.33a2.084,2.084,0,0,0-1.215.353,3.95,3.95,0,0,0-.961,1v4.125a3,3,0,0,0,.9.922,2.115,2.115,0,0,0,1.17.337A1.858,1.858,0,0,0,411.083,48.418Z"/><path d="M420.72,49.835h-.75l-.045-1.4A2.859,2.859,0,0,1,417.361,50a2.129,2.129,0,0,1-1.643-.622,2.517,2.517,0,0,1-.578-1.777V41.99h.871v5.52a1.969,1.969,0,0,0,.383,1.343,1.478,1.478,0,0,0,1.162.427,2.68,2.68,0,0,0,2.3-1.605V41.99h.869Z"/><path d="M424.771,49.55a4.781,4.781,0,0,1-.225,1.628,2.274,2.274,0,0,1-.66.975,5.267,5.267,0,0,1-1.23.727l-.254-.63a3.967,3.967,0,0,0,.877-.562,1.722,1.722,0,0,0,.465-.765,4.534,4.534,0,0,0,.158-1.342V41.99h.869Zm.031-10.83a.654.654,0,0,1,0,.9.655.655,0,0,1-.48.179.631.631,0,0,1-.465-.179.654.654,0,0,1,0-.9.631.631,0,0,1,.465-.179A.655.655,0,0,1,424.8,38.72Z"/><path d="M433.486,46.25h-5.235a3.652,3.652,0,0,0,.727,2.273,2.178,2.178,0,0,0,1.719.743,2.943,2.943,0,0,0,1.088-.188,4.819,4.819,0,0,0,1.027-.593l.4.556a4.444,4.444,0,0,1-1.2.719,3.726,3.726,0,0,1-1.365.24,3.006,3.006,0,0,1-2.446-1.064,4.5,4.5,0,0,1-.884-2.956A5.746,5.746,0,0,1,427.7,43.8a3.27,3.27,0,0,1,1.094-1.455,2.747,2.747,0,0,1,1.658-.517,2.7,2.7,0,0,1,2.28,1.012,4.462,4.462,0,0,1,.781,2.783C433.517,45.84,433.505,46.05,433.486,46.25Zm-.825-.9a3.431,3.431,0,0,0-.546-2.063,1.9,1.9,0,0,0-1.629-.743,1.92,1.92,0,0,0-1.575.75,3.86,3.86,0,0,0-.66,2.281h4.41Z"/><path d="M441.046,38.69V49.835h-.871V38.8Zm4.395,3.3-3.3,3.51,3.646,4.335h-1.05l-3.6-4.29,3.3-3.555Z"/><path d="M452.529,42.9a4.606,4.606,0,0,1,.877,2.993,4.639,4.639,0,0,1-.893,3.007,3.261,3.261,0,0,1-4.875.015,4.645,4.645,0,0,1-.877-2.993,5.424,5.424,0,0,1,.4-2.174,3.02,3.02,0,0,1,2.926-1.92A2.979,2.979,0,0,1,452.529,42.9Zm-4.209.518a4.184,4.184,0,0,0-.629,2.5,4.193,4.193,0,0,0,.623,2.491,2.052,2.052,0,0,0,1.762.855,2.1,2.1,0,0,0,1.777-.855,4.178,4.178,0,0,0,.639-2.52,4.17,4.17,0,0,0-.623-2.483,2.276,2.276,0,0,0-3.549.008Z"/><path d="M456.249,49.625a1.52,1.52,0,0,1-.369-1.109V38.8l.871-.105v9.8c0,.511.209.765.629.765a1.286,1.286,0,0,0,.541-.1l.24.645a2,2,0,0,1-.9.209A1.351,1.351,0,0,1,456.249,49.625Z"/><path d="M465.675,46.25h-5.234a3.658,3.658,0,0,0,.726,2.273,2.179,2.179,0,0,0,1.719.743,2.939,2.939,0,0,0,1.088-.188A4.819,4.819,0,0,0,465,48.485l.405.556a4.449,4.449,0,0,1-1.2.719,3.726,3.726,0,0,1-1.365.24,3,3,0,0,1-2.445-1.064,4.494,4.494,0,0,1-.885-2.956,5.727,5.727,0,0,1,.383-2.182,3.263,3.263,0,0,1,1.094-1.455,2.743,2.743,0,0,1,1.658-.517,2.7,2.7,0,0,1,2.279,1.012,4.456,4.456,0,0,1,.781,2.783C465.706,45.84,465.7,46.05,465.675,46.25Zm-.824-.9a3.431,3.431,0,0,0-.547-2.063,1.9,1.9,0,0,0-1.629-.743,1.918,1.918,0,0,0-1.574.75,3.86,3.86,0,0,0-.66,2.281h4.41Z"/><path d="M477.324,42.47a2.625,2.625,0,0,1,.546,1.756v5.609H477v-5.49a2.2,2.2,0,0,0-.353-1.372,1.187,1.187,0,0,0-.983-.443,1.847,1.847,0,0,0-1.185.421,4.82,4.82,0,0,0-1.02,1.2v5.685h-.869v-5.49a2.184,2.184,0,0,0-.353-1.372,1.187,1.187,0,0,0-.983-.443,1.863,1.863,0,0,0-1.2.421,4.6,4.6,0,0,0-1.006,1.2v5.685h-.869V41.99h.75l.074,1.336a3.569,3.569,0,0,1,1.067-1.1,2.428,2.428,0,0,1,1.349-.4,1.939,1.939,0,0,1,1.26.412,2.045,2.045,0,0,1,.689,1.147,3.765,3.765,0,0,1,1.088-1.147,2.431,2.431,0,0,1,1.373-.412A1.861,1.861,0,0,1,477.324,42.47Z"/><path d="M489.669,40.753a5.028,5.028,0,0,1,.758,2.962,7.7,7.7,0,0,1-.557,3.165,4.637,4.637,0,0,1-1.626,1.965,10.515,10.515,0,0,1-2.829,1.276l-.224-.676a7.4,7.4,0,0,0,3.158-1.725,4.421,4.421,0,0,0,1.191-3,3.318,3.318,0,0,1-1.08,1.028,2.686,2.686,0,0,1-1.379.367,2.585,2.585,0,0,1-1.394-.382,2.631,2.631,0,0,1-.969-1.095,3.745,3.745,0,0,1-.351-1.673,3.629,3.629,0,0,1,.4-1.732,2.829,2.829,0,0,1,1.088-1.14,3.042,3.042,0,0,1,1.545-.4A2.615,2.615,0,0,1,489.669,40.753Zm-1.17,4.26A3.9,3.9,0,0,0,489.54,43.9a5.176,5.176,0,0,0-.494-2.633,1.751,1.751,0,0,0-1.619-.847,1.983,1.983,0,0,0-1.584.667,2.813,2.813,0,0,0-.576,1.9,2.692,2.692,0,0,0,.531,1.786,1.781,1.781,0,0,0,1.434.63A2.2,2.2,0,0,0,488.5,45.013Z"/><path d="M497.806,41.008a7.535,7.535,0,0,1,.8,3.847,7.429,7.429,0,0,1-.8,3.833,2.736,2.736,0,0,1-4.672,0,7.514,7.514,0,0,1-.795-3.848,7.473,7.473,0,0,1,.795-3.84,2.746,2.746,0,0,1,4.68.008ZM493.23,44.84q0,4.441,2.236,4.44a1.784,1.784,0,0,0,1.656-1.079,7.568,7.568,0,0,0,.563-3.346,7.615,7.615,0,0,0-.563-3.352,1.782,1.782,0,0,0-1.656-1.087Q493.231,40.416,493.23,44.84Z"/><path d="M510.744,42.883a5.334,5.334,0,0,1,.71,2.992,5.2,5.2,0,0,1-.771,3.008A2.528,2.528,0,0,1,508.47,50a2.751,2.751,0,0,1-1.275-.292,2.879,2.879,0,0,1-.959-.788v3.871l-.871.12V41.99h.75l.076,1.14a3.175,3.175,0,0,1,1.056-.96,2.758,2.758,0,0,1,1.358-.344A2.409,2.409,0,0,1,510.744,42.883Zm-.79,5.528a4.591,4.591,0,0,0,.571-2.536q0-3.33-2.084-3.33a2.091,2.091,0,0,0-1.223.36,4.257,4.257,0,0,0-.982.991v4.169a2.368,2.368,0,0,0,2.07,1.2A1.859,1.859,0,0,0,509.954,48.411Z"/><path d="M517.906,41.916l-.166.824a2.647,2.647,0,0,0-.69-.09,1.6,1.6,0,0,0-1.283.578,4.728,4.728,0,0,0-.816,1.808v4.8h-.872V41.99h.75l.077,1.756a3.13,3.13,0,0,1,.861-1.448,2,2,0,0,1,1.357-.472A2.859,2.859,0,0,1,517.906,41.916Z"/><path d="M524.363,42.9a4.606,4.606,0,0,1,.877,2.993,4.639,4.639,0,0,1-.893,3.007,3.261,3.261,0,0,1-4.875.015,4.645,4.645,0,0,1-.877-2.993,5.424,5.424,0,0,1,.4-2.174,3.02,3.02,0,0,1,2.926-1.92A2.979,2.979,0,0,1,524.363,42.9Zm-4.209.518a4.184,4.184,0,0,0-.629,2.5,4.193,4.193,0,0,0,.623,2.491,2.052,2.052,0,0,0,1.762.855,2.1,2.1,0,0,0,1.777-.855,4.178,4.178,0,0,0,.639-2.52,4.17,4.17,0,0,0-.623-2.483,2.276,2.276,0,0,0-3.549.008Z"/><path d="M531.675,42.013a3.3,3.3,0,0,1,1.02.608l-.436.569a2.811,2.811,0,0,0-.8-.464,2.709,2.709,0,0,0-.937-.15,2.121,2.121,0,0,0-1.772.862,4.088,4.088,0,0,0-.66,2.513,3.908,3.908,0,0,0,.655,2.46,2.126,2.126,0,0,0,1.761.824,2.608,2.608,0,0,0,.953-.165,3.546,3.546,0,0,0,.862-.494l.42.585a3.385,3.385,0,0,1-2.25.839,3.189,3.189,0,0,1-1.754-.479,3.14,3.14,0,0,1-1.164-1.388,5.222,5.222,0,0,1-.412-2.168,5.4,5.4,0,0,1,.412-2.182,3.314,3.314,0,0,1,1.164-1.448,3.026,3.026,0,0,1,1.74-.509A3.551,3.551,0,0,1,531.675,42.013Z"/><path d="M540.105,46.25H534.87a3.652,3.652,0,0,0,.727,2.273,2.179,2.179,0,0,0,1.719.743,2.943,2.943,0,0,0,1.088-.188,4.819,4.819,0,0,0,1.027-.593l.4.556a4.444,4.444,0,0,1-1.2.719,3.726,3.726,0,0,1-1.365.24,3,3,0,0,1-2.445-1.064,4.494,4.494,0,0,1-.885-2.956,5.727,5.727,0,0,1,.383-2.182,3.268,3.268,0,0,1,1.093-1.455,2.748,2.748,0,0,1,1.659-.517,2.7,2.7,0,0,1,2.279,1.012,4.462,4.462,0,0,1,.781,2.783C540.136,45.84,540.124,46.05,540.105,46.25Zm-.824-.9a3.431,3.431,0,0,0-.547-2.063,1.9,1.9,0,0,0-1.629-.743,1.916,1.916,0,0,0-1.574.75,3.86,3.86,0,0,0-.661,2.281h4.411Z"/><path d="M547.7,42.456a2.565,2.565,0,0,1,.562,1.77v5.609h-.871v-5.49a2.088,2.088,0,0,0-.375-1.38,1.383,1.383,0,0,0-1.109-.435,2.231,2.231,0,0,0-1.329.413,4.527,4.527,0,0,0-1.1,1.207v5.685h-.871V41.99h.75l.09,1.336a3.675,3.675,0,0,1,1.14-1.1,2.824,2.824,0,0,1,1.485-.4A2.07,2.07,0,0,1,547.7,42.456Z"/><path d="M554.941,49.505A2.937,2.937,0,0,1,553.29,50a1.861,1.861,0,0,1-1.41-.532,2.136,2.136,0,0,1-.51-1.537V42.7h-1.32v-.7h1.32V40.115l.87-.105v1.98h2.025l-.105.7h-1.92v5.19a1.565,1.565,0,0,0,.285,1.028,1.074,1.074,0,0,0,.871.337,2.381,2.381,0,0,0,1.2-.345Z"/><path d="M599.46,137.141a3.653,3.653,0,0,1,.739,2.412,4.22,4.22,0,0,1-.336,1.734,2.643,2.643,0,0,1-.973,1.164,2.71,2.71,0,0,1-1.512.414,2.562,2.562,0,0,1-2.076-.888,3.638,3.638,0,0,1-.744-2.412,4.2,4.2,0,0,1,.336-1.734,2.649,2.649,0,0,1,.973-1.164,2.726,2.726,0,0,1,1.523-.414A2.541,2.541,0,0,1,599.46,137.141Zm-3.714,2.424q0,2.412,1.632,2.412t1.632-2.424q0-2.412-1.62-2.412Q595.746,137.141,595.746,139.565Z"/><path d="M610.086,139.865v.876h-1.044v1.98h-1.068v-1.98h-3.432v-.792l2.411-5.376.925.384-2.173,4.908h2.281l.1-2.16h.961v2.16Z"/><path d="M612.475,141.437a.8.8,0,0,1,.239.588,2.1,2.1,0,0,1-.216.852l-.8,1.836H610.9l.479-1.992a.864.864,0,0,1-.245-.3.874.874,0,0,1-.091-.4.82.82,0,0,1,.828-.828A.815.815,0,0,1,612.475,141.437Z"/><path d="M617.411,134.849a2,2,0,0,1,.817.744,1.949,1.949,0,0,1,.282,1.02,1.736,1.736,0,0,1-.426,1.206,2.143,2.143,0,0,1-1.134.642,2.041,2.041,0,0,1,1.308.576,1.848,1.848,0,0,1,.5,1.368,2.415,2.415,0,0,1-.336,1.26,2.3,2.3,0,0,1-.96.882,3.129,3.129,0,0,1-1.44.318,3.29,3.29,0,0,1-1.344-.27,2.942,2.942,0,0,1-1.068-.81l.66-.612a2.741,2.741,0,0,0,.81.6,2.124,2.124,0,0,0,.906.192,1.618,1.618,0,0,0,1.188-.426,1.537,1.537,0,0,0,.432-1.146,1.347,1.347,0,0,0-.408-1.116,1.877,1.877,0,0,0-1.188-.324h-.6l.132-.852h.407a1.5,1.5,0,0,0,1.039-.372,1.331,1.331,0,0,0,.414-1.044,1.153,1.153,0,0,0-.36-.894,1.383,1.383,0,0,0-.972-.33,2.146,2.146,0,0,0-.858.168,2.805,2.805,0,0,0-.8.552l-.576-.66a3.283,3.283,0,0,1,2.292-.948A2.745,2.745,0,0,1,617.411,134.849Z"/><path d="M627.078,136.415a2.879,2.879,0,0,1,.9.522l-.528.7a2.71,2.71,0,0,0-.654-.354,2.068,2.068,0,0,0-.7-.114,1.371,1.371,0,0,0-1.194.612,3.176,3.176,0,0,0-.426,1.812,3,3,0,0,0,.42,1.77,1.4,1.4,0,0,0,1.2.57,1.979,1.979,0,0,0,.684-.114,3.477,3.477,0,0,0,.7-.366l.5.72a3,3,0,0,1-1.932.7,2.519,2.519,0,0,1-2.022-.864,3.561,3.561,0,0,1-.738-2.388,4.327,4.327,0,0,1,.335-1.764,2.716,2.716,0,0,1,.955-1.176,2.552,2.552,0,0,1,1.47-.42A3.138,3.138,0,0,1,627.078,136.415Z"/><path d="M637.075,136.775a2.038,2.038,0,0,1,.467,1.41v4.536h-1.1v-4.38q0-1.224-.888-1.224a1.2,1.2,0,0,0-.792.27,3.777,3.777,0,0,0-.7.846v4.488h-1.1v-4.38q0-1.224-.887-1.224a1.2,1.2,0,0,0-.805.276,3.81,3.81,0,0,0-.684.84v4.488h-1.1V136.4h.948l.1.924a2.118,2.118,0,0,1,1.824-1.068,1.666,1.666,0,0,1,1,.3,1.64,1.64,0,0,1,.594.84,2.972,2.972,0,0,1,.822-.846,1.9,1.9,0,0,1,1.063-.294A1.6,1.6,0,0,1,637.075,136.775Z"/><path d="M647.586,136.4l-2.148,6.324h-1.332l-2.184-6.324h1.2l1.656,5.34,1.644-5.34Z"/><path d="M651.377,142.757a4.256,4.256,0,0,1-1.038,1.746,3.131,3.131,0,0,1-1.9.774l-.12-.864a3.25,3.25,0,0,0,1-.312,1.734,1.734,0,0,0,.594-.522,3.7,3.7,0,0,0,.414-.858h-.372l-2.124-6.324H649l1.693,5.52,1.655-5.52h1.141Z"/><path d="M657.545,136.433a3.5,3.5,0,0,1,.985.54l-.468.7a3.842,3.842,0,0,0-.822-.408,2.553,2.553,0,0,0-.823-.132,1.444,1.444,0,0,0-.851.222.75.75,0,0,0-.018,1.206,3.412,3.412,0,0,0,1.062.42,3.794,3.794,0,0,1,1.578.72,1.571,1.571,0,0,1,.521,1.248,1.617,1.617,0,0,1-.725,1.428,3.083,3.083,0,0,1-1.77.492,3.5,3.5,0,0,1-2.388-.828l.587-.672a2.867,2.867,0,0,0,1.777.612,1.689,1.689,0,0,0,.99-.258.816.816,0,0,0,.365-.7.926.926,0,0,0-.132-.522,1.067,1.067,0,0,0-.456-.348,6.238,6.238,0,0,0-.947-.318,3.23,3.23,0,0,1-1.458-.708,1.514,1.514,0,0,1-.45-1.128,1.479,1.479,0,0,1,.294-.894,1.918,1.918,0,0,1,.815-.624,2.97,2.97,0,0,1,1.171-.222A3.51,3.51,0,0,1,657.545,136.433Zm.445-3.132.467.54-1.62,1.356h-.731l-1.632-1.356.479-.54,1.513,1.008Z"/><path d="M663.03,136.433a3.49,3.49,0,0,1,.984.54l-.468.7a3.819,3.819,0,0,0-.822-.408,2.547,2.547,0,0,0-.822-.132,1.446,1.446,0,0,0-.852.222.751.751,0,0,0-.017,1.206,3.393,3.393,0,0,0,1.061.42,3.788,3.788,0,0,1,1.578.72,1.571,1.571,0,0,1,.522,1.248,1.616,1.616,0,0,1-.726,1.428,3.08,3.08,0,0,1-1.769.492,3.5,3.5,0,0,1-2.389-.828l.588-.672a2.865,2.865,0,0,0,1.776.612,1.689,1.689,0,0,0,.99-.258.815.815,0,0,0,.366-.7.926.926,0,0,0-.132-.522,1.073,1.073,0,0,0-.456-.348,6.257,6.257,0,0,0-.948-.318,3.235,3.235,0,0,1-1.458-.708,1.517,1.517,0,0,1-.45-1.128,1.479,1.479,0,0,1,.294-.894,1.921,1.921,0,0,1,.816-.624,2.963,2.963,0,0,1,1.171-.222A3.519,3.519,0,0,1,663.03,136.433Zm.444-3.132.468.54-1.62,1.356h-.732l-1.632-1.356.48-.54,1.513,1.008Z"/><path d="M667.253,133.109l.492.924-2.543,1.032-.336-.588Zm-.4,3.288v6.324h-1.1V136.4Z"/><path d="M601.92,151.541a3.659,3.659,0,0,1,.739,2.412,4.22,4.22,0,0,1-.336,1.734,2.643,2.643,0,0,1-.973,1.164,2.71,2.71,0,0,1-1.512.414,2.562,2.562,0,0,1-2.076-.888,3.638,3.638,0,0,1-.744-2.412,4.2,4.2,0,0,1,.336-1.734,2.637,2.637,0,0,1,.973-1.164,2.726,2.726,0,0,1,1.523-.414A2.541,2.541,0,0,1,601.92,151.541Zm-3.714,2.424q0,2.412,1.632,2.412t1.632-2.424q0-2.412-1.62-2.412Q598.206,151.541,598.206,153.965Z"/><path d="M611.491,149.093v.828l-3,7.32-1.008-.336,2.891-6.912h-3.551v-.9Z"/><path d="M613.878,155.837a.8.8,0,0,1,.24.588,2.119,2.119,0,0,1-.216.852l-.8,1.836h-.792l.48-1.992a.856.856,0,0,1-.246-.3.873.873,0,0,1-.09-.4.82.82,0,0,1,.828-.828A.814.814,0,0,1,613.878,155.837Z"/><path d="M619.47,149.807a3.59,3.59,0,0,1,.66,2.286,6.612,6.612,0,0,1-.444,2.646,3.61,3.61,0,0,1-1.356,1.6,9.434,9.434,0,0,1-2.472,1.05l-.252-.828a6.1,6.1,0,0,0,2.466-1.236,2.86,2.86,0,0,0,.918-2.076,2.076,2.076,0,0,1-.744.7,2.112,2.112,0,0,1-1.056.264,2.07,2.07,0,0,1-1.128-.318,2.217,2.217,0,0,1-.8-.9,2.984,2.984,0,0,1-.294-1.362,2.773,2.773,0,0,1,.348-1.416,2.384,2.384,0,0,1,.93-.918,2.646,2.646,0,0,1,1.29-.318A2.316,2.316,0,0,1,619.47,149.807Zm-.456,2.538a3.725,3.725,0,0,0-.33-1.914,1.216,1.216,0,0,0-1.122-.582,1.332,1.332,0,0,0-1.092.468,2.049,2.049,0,0,0-.384,1.332,1.919,1.919,0,0,0,.36,1.266,1.207,1.207,0,0,0,.972.426A1.88,1.88,0,0,0,619.014,152.345Z"/><path d="M626.154,148.121v9h-1.105v-8.868Zm3.635,2.676-2.328,2.8,2.592,3.528h-1.319l-2.508-3.456,2.327-2.868Z"/><path d="M636.21,151.085a3.39,3.39,0,0,1-.792.156q-.432.036-1.056.036a1.67,1.67,0,0,1,1.116,1.6,2.014,2.014,0,0,1-.648,1.548,2.5,2.5,0,0,1-1.764.6,2.6,2.6,0,0,1-.8-.12.669.669,0,0,0-.227.258.7.7,0,0,0-.084.33q0,.516.827.516h1.008a2.655,2.655,0,0,1,1.128.228,1.824,1.824,0,0,1,.762.624,1.56,1.56,0,0,1,.27.9,1.6,1.6,0,0,1-.756,1.422,4.028,4.028,0,0,1-2.208.5,4.981,4.981,0,0,1-1.613-.21,1.531,1.531,0,0,1-.847-.63,2.075,2.075,0,0,1-.252-1.08h1a1.1,1.1,0,0,0,.145.606.893.893,0,0,0,.515.336,3.785,3.785,0,0,0,1.056.114,3.012,3.012,0,0,0,1.422-.246.8.8,0,0,0,.426-.738.76.76,0,0,0-.336-.672,1.652,1.652,0,0,0-.936-.228h-1a1.874,1.874,0,0,1-1.218-.342,1.068,1.068,0,0,1-.414-.858,1.116,1.116,0,0,1,.18-.6,1.759,1.759,0,0,1,.516-.516,1.8,1.8,0,0,1-1.068-1.752,2.091,2.091,0,0,1,.318-1.14,2.168,2.168,0,0,1,.876-.786,2.714,2.714,0,0,1,1.242-.282,8.79,8.79,0,0,0,1.249-.054,4.359,4.359,0,0,0,.834-.18q.329-.114.809-.33Zm-4.182.75a1.714,1.714,0,0,0,.007,2.064,1.246,1.246,0,0,0,.983.39,1.265,1.265,0,0,0,.99-.378,1.527,1.527,0,0,0,.342-1.062,1.367,1.367,0,0,0-2.322-1.014Z"/><path d="M640.824,156.9a1.415,1.415,0,0,1-.354-1.026v-7.62l1.1-.132v7.728a.646.646,0,0,0,.09.384.358.358,0,0,0,.306.12,1.1,1.1,0,0,0,.408-.072l.288.768a1.8,1.8,0,0,1-.876.216A1.281,1.281,0,0,1,640.824,156.9Z"/><path d="M648.738,154.337h-4.032a2.464,2.464,0,0,0,.528,1.536,1.532,1.532,0,0,0,1.177.492,2.567,2.567,0,0,0,.839-.132,3.387,3.387,0,0,0,.8-.42l.481.66a3.5,3.5,0,0,1-2.208.792,2.561,2.561,0,0,1-2.059-.864,3.542,3.542,0,0,1-.738-2.376,4.5,4.5,0,0,1,.318-1.746,2.739,2.739,0,0,1,.912-1.194,2.313,2.313,0,0,1,1.4-.432,2.344,2.344,0,0,1,1.932.828,3.54,3.54,0,0,1,.672,2.292Q648.762,154.049,648.738,154.337Zm-1.068-.888a2.338,2.338,0,0,0-.372-1.428,1.31,1.31,0,0,0-1.116-.492q-1.356,0-1.476,1.992h2.964Z"/><path d="M654.852,151.169a1.982,1.982,0,0,1,.486,1.416v4.536h-1.1v-4.38a1.379,1.379,0,0,0-.258-.948.977.977,0,0,0-.75-.276,1.422,1.422,0,0,0-.876.288,3.05,3.05,0,0,0-.72.816v4.5h-1.1v-8.856l1.1-.12v3.528a2.238,2.238,0,0,1,1.872-1.02A1.765,1.765,0,0,1,654.852,151.169Z"/><path d="M660.894,150.815a2.879,2.879,0,0,1,.9.522l-.528.7a2.705,2.705,0,0,0-.653-.354,2.072,2.072,0,0,0-.7-.114,1.373,1.373,0,0,0-1.195.612,3.174,3.174,0,0,0-.426,1.812,3,3,0,0,0,.42,1.77,1.4,1.4,0,0,0,1.2.57,1.974,1.974,0,0,0,.683-.114,3.45,3.45,0,0,0,.7-.366l.5.72a3,3,0,0,1-1.931.7,2.52,2.52,0,0,1-2.023-.864,3.561,3.561,0,0,1-.738-2.388,4.31,4.31,0,0,1,.336-1.764,2.714,2.714,0,0,1,.954-1.176,2.553,2.553,0,0,1,1.471-.42A3.132,3.132,0,0,1,660.894,150.815Zm.517-3.114.467.54-1.62,1.356h-.731l-1.633-1.356.48-.54,1.512,1.008Z"/><path d="M664.793,147.509l.493.924-2.544,1.032-.336-.588ZM664.4,150.8v6.324h-1.105V150.8Z"/><use class="cls-4" transform="translate(472.553 181.064) scale(0.448)" xlink:href="#image"/><use transform="translate(520.769 110.829) scale(0.565)" xlink:href="#image"/></g></g></svg>